  0
SECTION
  2
HEADER
  9
$ACADVER
  1
AC1027
  9
$ACADMAINTVER
 70
   105
  9
$DWGCODEPAGE
  3
ANSI_1252
  9
$REQUIREDVERSIONS
160
                 0
  9
$LASTSAVEDBY
  1
fconstantin
  9
$INSBASE
 10
0.0
 20
0.0
 30
0.0
  9
$EXTMIN
 10
9.6675
 20
9.66749999999999
 30
0.0
  9
$EXTMAX
 10
326.367484
 20
249.667507
 30
2.0
  9
$LIMMIN
 10
0.0
 20
0.0
  9
$LIMMAX
 10
12.0
 20
9.0
  9
$ORTHOMODE
 70
     0
  9
$REGENMODE
 70
     1
  9
$FILLMODE
 70
     1
  9
$QTEXTMODE
 70
     0
  9
$MIRRTEXT
 70
     1
  9
$LTSCALE
 40
1.0
  9
$ATTMODE
 70
     1
  9
$TEXTSIZE
 40
0.2
  9
$TRACEWID
 40
0.05
  9
$TEXTSTYLE
  7
Standard
  9
$CLAYER
  8
annotation
  9
$CELTYPE
  6
ByBlock
  9
$CECOLOR
 62
   256
  9
$CELTSCALE
 40
1.0
  9
$DISPSILH
 70
     0
  9
$DIMSCALE
 40
1.0
  9
$DIMASZ
 40
0.18
  9
$DIMEXO
 40
0.0625
  9
$DIMDLI
 40
0.38
  9
$DIMRND
 40
0.0
  9
$DIMDLE
 40
0.0
  9
$DIMEXE
 40
0.18
  9
$DIMTP
 40
0.0
  9
$DIMTM
 40
0.0
  9
$DIMTXT
 40
0.18
  9
$DIMCEN
 40
0.09
  9
$DIMTSZ
 40
0.0
  9
$DIMTOL
 70
     0
  9
$DIMLIM
 70
     0
  9
$DIMTIH
 70
     1
  9
$DIMTOH
 70
     1
  9
$DIMSE1
 70
     0
  9
$DIMSE2
 70
     0
  9
$DIMTAD
 70
     0
  9
$DIMZIN
 70
     0
  9
$DIMBLK
  1

  9
$DIMASO
 70
     1
  9
$DIMSHO
 70
     1
  9
$DIMPOST
  1

  9
$DIMAPOST
  1

  9
$DIMALT
 70
     0
  9
$DIMALTD
 70
     2
  9
$DIMALTF
 40
25.4
  9
$DIMLFAC
 40
1.0
  9
$DIMTOFL
 70
     0
  9
$DIMTVP
 40
0.0
  9
$DIMTIX
 70
     0
  9
$DIMSOXD
 70
     0
  9
$DIMSAH
 70
     0
  9
$DIMBLK1
  1

  9
$DIMBLK2
  1

  9
$DIMSTYLE
  2
Standard
  9
$DIMCLRD
 70
     0
  9
$DIMCLRE
 70
     0
  9
$DIMCLRT
 70
     0
  9
$DIMTFAC
 40
1.0
  9
$DIMGAP
 40
0.09
  9
$DIMJUST
 70
     0
  9
$DIMSD1
 70
     0
  9
$DIMSD2
 70
     0
  9
$DIMTOLJ
 70
     1
  9
$DIMTZIN
 70
     0
  9
$DIMALTZ
 70
     0
  9
$DIMALTTZ
 70
     0
  9
$DIMUPT
 70
     0
  9
$DIMDEC
 70
     4
  9
$DIMTDEC
 70
     4
  9
$DIMALTU
 70
     2
  9
$DIMALTTD
 70
     2
  9
$DIMTXSTY
  7
Standard
  9
$DIMAUNIT
 70
     0
  9
$DIMADEC
 70
     0
  9
$DIMALTRND
 40
0.0
  9
$DIMAZIN
 70
     0
  9
$DIMDSEP
 70
    46
  9
$DIMATFIT
 70
     3
  9
$DIMFRAC
 70
     0
  9
$DIMLDRBLK
  1

  9
$DIMLUNIT
 70
     2
  9
$DIMLWD
 70
    -2
  9
$DIMLWE
 70
    -2
  9
$DIMTMOVE
 70
     2
  9
$DIMFXL
 40
1.0
  9
$DIMFXLON
 70
     0
  9
$DIMJOGANG
 40
0.7853981633974483
  9
$DIMTFILL
 70
     0
  9
$DIMTFILLCLR
 70
     0
  9
$DIMARCSYM
 70
     0
  9
$DIMLTYPE
  6

  9
$DIMLTEX1
  6

  9
$DIMLTEX2
  6

  9
$DIMTXTDIRECTION
 70
     0
  9
$LUNITS
 70
     2
  9
$LUPREC
 70
     4
  9
$SKETCHINC
 40
0.1
  9
$FILLETRAD
 40
0.5
  9
$AUNITS
 70
     0
  9
$AUPREC
 70
     0
  9
$MENU
  1
.
  9
$ELEVATION
 40
0.0
  9
$PELEVATION
 40
0.0
  9
$THICKNESS
 40
0.0
  9
$LIMCHECK
 70
     0
  9
$CHAMFERA
 40
0.0
  9
$CHAMFERB
 40
0.0
  9
$CHAMFERC
 40
0.0
  9
$CHAMFERD
 40
0.0
  9
$SKPOLY
 70
     0
  9
$TDCREATE
 40
2457956.592442824
  9
$TDUCREATE
 40
2457956.509109491
  9
$TDUPDATE
 40
2457956.611345613
  9
$TDUUPDATE
 40
2457956.52801228
  9
$TDINDWG
 40
0.0164388079
  9
$TDUSRTIMER
 40
2457956.509112107
  9
$USRTIMER
 70
     1
  9
$ANGBASE
 50
0.0
  9
$ANGDIR
 70
     0
  9
$PDMODE
 70
     0
  9
$PDSIZE
 40
0.0
  9
$PLINEWID
 40
0.0
  9
$SPLFRAME
 70
     0
  9
$SPLINETYPE
 70
     6
  9
$SPLINESEGS
 70
     8
  9
$HANDSEED
  5
3059
  9
$SURFTAB1
 70
     6
  9
$SURFTAB2
 70
     6
  9
$SURFTYPE
 70
     6
  9
$SURFU
 70
     6
  9
$SURFV
 70
     6
  9
$UCSBASE
  2

  9
$UCSNAME
  2

  9
$UCSORG
 10
0.0
 20
0.0
 30
0.0
  9
$UCSXDIR
 10
1.0
 20
0.0
 30
0.0
  9
$UCSYDIR
 10
0.0
 20
1.0
 30
0.0
  9
$UCSORTHOREF
  2

  9
$UCSORTHOVIEW
 70
     0
  9
$UCSORGTOP
 10
0.0
 20
0.0
 30
0.0
  9
$UCSORGBOTTOM
 10
0.0
 20
0.0
 30
0.0
  9
$UCSORGLEFT
 10
0.0
 20
0.0
 30
0.0
  9
$UCSORGRIGHT
 10
0.0
 20
0.0
 30
0.0
  9
$UCSORGFRONT
 10
0.0
 20
0.0
 30
0.0
  9
$UCSORGBACK
 10
0.0
 20
0.0
 30
0.0
  9
$PUCSBASE
  2

  9
$PUCSNAME
  2

  9
$PUCSORG
 10
0.0
 20
0.0
 30
0.0
  9
$PUCSXDIR
 10
1.0
 20
0.0
 30
0.0
  9
$PUCSYDIR
 10
0.0
 20
1.0
 30
0.0
  9
$PUCSORTHOREF
  2

  9
$PUCSORTHOVIEW
 70
     0
  9
$PUCSORGTOP
 10
0.0
 20
0.0
 30
0.0
  9
$PUCSORGBOTTOM
 10
0.0
 20
0.0
 30
0.0
  9
$PUCSORGLEFT
 10
0.0
 20
0.0
 30
0.0
  9
$PUCSORGRIGHT
 10
0.0
 20
0.0
 30
0.0
  9
$PUCSORGFRONT
 10
0.0
 20
0.0
 30
0.0
  9
$PUCSORGBACK
 10
0.0
 20
0.0
 30
0.0
  9
$USERI1
 70
     0
  9
$USERI2
 70
     0
  9
$USERI3
 70
     0
  9
$USERI4
 70
     0
  9
$USERI5
 70
     0
  9
$USERR1
 40
0.0
  9
$USERR2
 40
0.0
  9
$USERR3
 40
0.0
  9
$USERR4
 40
0.0
  9
$USERR5
 40
0.0
  9
$WORLDVIEW
 70
     1
  9
$SHADEDGE
 70
     3
  9
$SHADEDIF
 70
    70
  9
$TILEMODE
 70
     1
  9
$MAXACTVP
 70
    64
  9
$PINSBASE
 10
0.0
 20
0.0
 30
0.0
  9
$PLIMCHECK
 70
     0
  9
$PEXTMIN
 10
1.000000000000000E+20
 20
1.000000000000000E+20
 30
1.000000000000000E+20
  9
$PEXTMAX
 10
-1.000000000000000E+20
 20
-1.000000000000000E+20
 30
-1.000000000000000E+20
  9
$PLIMMIN
 10
0.0
 20
0.0
  9
$PLIMMAX
 10
0.0
 20
0.0
  9
$UNITMODE
 70
     0
  9
$VISRETAIN
 70
     1
  9
$PLINEGEN
 70
     0
  9
$PSLTSCALE
 70
     1
  9
$TREEDEPTH
 70
  3020
  9
$CMLSTYLE
  2
Standard
  9
$CMLJUST
 70
     0
  9
$CMLSCALE
 40
1.0
  9
$PROXYGRAPHICS
 70
     1
  9
$MEASUREMENT
 70
     0
  9
$CELWEIGHT
370
    -1
  9
$ENDCAPS
280
     0
  9
$JOINSTYLE
280
     0
  9
$LWDISPLAY
290
     0
  9
$INSUNITS
 70
     0
  9
$HYPERLINKBASE
  1

  9
$STYLESHEET
  1

  9
$XEDIT
290
     1
  9
$CEPSNTYPE
380
     0
  9
$PSTYLEMODE
290
     1
  9
$FINGERPRINTGUID
  2
{72E73560-89EA-49B6-805A-0DBA11B7947C}
  9
$VERSIONGUID
  2
{FAEB1C32-E019-11D5-929B-00C0DF256EC4}
  9
$EXTNAMES
290
     1
  9
$PSVPSCALE
 40
0.0
  9
$OLESTARTUP
290
     0
  9
$SORTENTS
280
   127
  9
$INDEXCTL
280
     0
  9
$HIDETEXT
280
     1
  9
$XCLIPFRAME
280
     2
  9
$HALOGAP
280
     0
  9
$OBSCOLOR
 70
   257
  9
$OBSLTYPE
280
     0
  9
$INTERSECTIONDISPLAY
280
     0
  9
$INTERSECTIONCOLOR
 70
   257
  9
$DIMASSOC
280
     2
  9
$PROJECTNAME
  1

  9
$CAMERADISPLAY
290
     0
  9
$LENSLENGTH
 40
50.0
  9
$CAMERAHEIGHT
 40
0.0
  9
$STEPSPERSEC
 40
2.0
  9
$STEPSIZE
 40
6.0
  9
$3DDWFPREC
 40
2.0
  9
$PSOLWIDTH
 40
0.25
  9
$PSOLHEIGHT
 40
4.0
  9
$LOFTANG1
 40
1.570796326794897
  9
$LOFTANG2
 40
1.570796326794897
  9
$LOFTMAG1
 40
0.0
  9
$LOFTMAG2
 40
0.0
  9
$LOFTPARAM
 70
     7
  9
$LOFTNORMALS
280
     1
  9
$LATITUDE
 40
37.795
  9
$LONGITUDE
 40
-122.394
  9
$NORTHDIRECTION
 40
0.0
  9
$TIMEZONE
 70
 -8000
  9
$LIGHTGLYPHDISPLAY
280
     1
  9
$TILEMODELIGHTSYNCH
280
     1
  9
$SOLIDHIST
280
     0
  9
$SHOWHIST
280
     1
  9
$DWFFRAME
280
     2
  9
$DGNFRAME
280
     2
  9
$REALWORLDSCALE
290
     1
  9
$INTERFERECOLOR
 62
   256
  9
$CSHADOW
280
     0
  9
$SHADOWPLANELOCATION
 40
0.0
  0
ENDSEC
  0
SECTION
  2
CLASSES
  0
CLASS
  1
ACDBDICTIONARYWDFLT
  2
AcDbDictionaryWithDefault
  3
ObjectDBX Classes
 90
        0
 91
        5
280
     0
281
     0
  0
CLASS
  1
SCALE
  2
AcDbScale
  3
ObjectDBX Classes
 90
     1153
 91
        5
280
     0
281
     0
  0
CLASS
  1
VISUALSTYLE
  2
AcDbVisualStyle
  3
ObjectDBX Classes
 90
     4095
 91
        5
280
     0
281
     0
  0
CLASS
  1
MATERIAL
  2
AcDbMaterial
  3
ObjectDBX Classes
 90
     1153
 91
        5
280
     0
281
     0
  0
CLASS
  1
TABLESTYLE
  2
AcDbTableStyle
  3
ObjectDBX Classes
 90
     4095
 91
        5
280
     0
281
     0
  0
CLASS
  1
MLEADERSTYLE
  2
AcDbMLeaderStyle
  3
ACDB_MLEADERSTYLE_CLASS
 90
     4095
 91
        5
280
     0
281
     0
  0
CLASS
  1
SUN
  2
AcDbSun
  3
SCENEOE
 90
     1153
 91
        5
280
     0
281
     0
  0
CLASS
  1
RASTERVARIABLES
  2
AcDbRasterVariables
  3
ISM
 90
        0
 91
        5
280
     0
281
     0
  0
CLASS
  1
DICTIONARYVAR
  2
AcDbDictionaryVar
  3
ObjectDBX Classes
 90
        0
 91
        5
280
     0
281
     0
  0
CLASS
  1
DIMASSOC
  2
AcDbDimAssoc
  3
"AcDbDimAssoc|Product Desc:     AcDim ARX App For Dimension|Company:          Autodesk, Inc.|WEB Address:      www.autodesk.com"
 90
        0
 91
        4
280
     0
281
     0
  0
CLASS
  1
CELLSTYLEMAP
  2
AcDbCellStyleMap
  3
ObjectDBX Classes
 90
     1152
 91
        5
280
     0
281
     0
  0
ENDSEC
  0
SECTION
  2
TABLES
  0
TABLE
  2
VPORT
  5
8
330
0
100
AcDbSymbolTable
 70
     2
  0
VPORT
  5
20
330
8
100
AcDbSymbolTableRecord
100
AcDbViewportTableRecord
  2
ACTIVE
 70
     0
 10
0.0
 20
0.0
 11
1.0
 21
1.0
 12
0.0
 22
0.0
 13
0.0
 23
0.0
 14
0.0
 24
0.0
 15
0.0
 25
0.0
 16
0.0
 26
0.0
 36
0.0
 17
0.0
 27
0.0
 37
0.0
 40
0.0
 41
0.0
 42
0.0
 43
0.0
 44
0.0
 50
0.0
 51
0.0
 71
     0
 72
  1000
 73
     1
 74
     3
 75
     0
 76
     0
 77
     0
 78
     0
281
     0
 65
     0
110
0.0
120
0.0
130
0.0
111
1.0
121
0.0
131
0.0
112
0.0
122
1.0
132
0.0
 79
     0
146
0.0
348
B64
 60
     3
 61
     5
292
     1
282
     1
141
0.0
142
0.0
 63
   256
  0
VPORT
  5
22
330
8
100
AcDbSymbolTableRecord
100
AcDbViewportTableRecord
  2
*Active
 70
     0
 10
0.0
 20
0.0
 11
1.0
 21
1.0
 12
168.5556301806893
 22
121.1522861467639
 13
0.0
 23
0.0
 14
0.5
 24
0.5
 15
0.5
 25
0.5
 16
0.0
 26
0.0
 36
1.0
 17
0.0
 27
0.0
 37
0.0
 40
325.2740608483465
 41
1.939431396786156
 42
50.0
 43
0.0
 44
0.0
 50
0.0
 51
0.0
 71
    16
 72
   100
 73
     1
 74
     3
 75
     0
 76
     0
 77
     0
 78
     0
281
     0
 65
     1
110
0.0
120
0.0
130
0.0
111
1.0
121
0.0
131
0.0
112
0.0
122
1.0
132
0.0
 79
     0
146
0.0
348
B64
 60
     3
 61
     5
292
     1
282
     1
141
0.0
142
0.0
 63
   250
361
B81
  0
ENDTAB
  0
TABLE
  2
LTYPE
  5
5
330
0
100
AcDbSymbolTable
 70
     1
  0
LTYPE
  5
14
330
5
100
AcDbSymbolTableRecord
100
AcDbLinetypeTableRecord
  2
ByBlock
 70
     0
  3

 72
    65
 73
     0
 40
0.0
  0
LTYPE
  5
15
330
5
100
AcDbSymbolTableRecord
100
AcDbLinetypeTableRecord
  2
ByLayer
 70
     0
  3

 72
    65
 73
     0
 40
0.0
  0
LTYPE
  5
16
330
5
100
AcDbSymbolTableRecord
100
AcDbLinetypeTableRecord
  2
Continuous
 70
     0
  3
Solid line
 72
    65
 73
     0
 40
0.0
  0
ENDTAB
  0
TABLE
  2
LAYER
  5
2
102
{ACAD_XDICTIONARY
360
240D
102
}
330
0
100
AcDbSymbolTable
 70
     6
  0
LAYER
  5
10
330
2
100
AcDbSymbolTableRecord
100
AcDbLayerTableRecord
  2
0
 70
     0
 62
     7
  6
Continuous
370
    -3
390
F
347
B7B
348
0
  0
LAYER
  5
B35
330
2
100
AcDbSymbolTableRecord
100
AcDbLayerTableRecord
  2
frame
 70
     0
 62
     7
  6
Continuous
370
    -3
390
F
347
B7B
348
0
  0
LAYER
  5
B36
330
2
100
AcDbSymbolTableRecord
100
AcDbLayerTableRecord
  2
annotation
 70
     0
 62
     7
  6
Continuous
370
    -3
390
F
347
B7B
348
0
  0
LAYER
  5
B37
330
2
100
AcDbSymbolTableRecord
100
AcDbLayerTableRecord
  2
boundary
 70
     0
 62
     7
  6
Continuous
370
    -3
390
F
347
B7B
348
0
  0
LAYER
  5
B38
330
2
100
AcDbSymbolTableRecord
100
AcDbLayerTableRecord
  2
hole
 70
     0
 62
     7
  6
Continuous
370
    -3
390
F
347
B7B
348
0
  0
LAYER
  5
261D
330
2
100
AcDbSymbolTableRecord
100
AcDbLayerTableRecord
  2
Defpoints
 70
     0
 62
     7
  6
Continuous
290
     0
370
    -3
390
F
347
B7B
348
0
  0
ENDTAB
  0
TABLE
  2
STYLE
  5
3
330
0
100
AcDbSymbolTable
 70
     1
  0
STYLE
  5
11
330
3
100
AcDbSymbolTableRecord
100
AcDbTextStyleTableRecord
  2
Standard
 70
     0
 40
0.0
 41
1.0
 50
0.0
 71
     0
 42
0.2
  3
txt
  4

  0
ENDTAB
  0
TABLE
  2
VIEW
  5
6
330
0
100
AcDbSymbolTable
 70
     0
  0
ENDTAB
  0
TABLE
  2
UCS
  5
7
330
0
100
AcDbSymbolTable
 70
     0
  0
ENDTAB
  0
TABLE
  2
APPID
  5
9
330
0
100
AcDbSymbolTable
 70
     1
  0
APPID
  5
12
330
9
100
AcDbSymbolTableRecord
100
AcDbRegAppTableRecord
  2
ACAD
 70
     0
  0
ENDTAB
  0
TABLE
  2
DIMSTYLE
  5
A
330
0
100
AcDbSymbolTable
 70
     1
100
AcDbDimStyleTable
  0
DIMSTYLE
105
21
330
A
100
AcDbSymbolTableRecord
100
AcDbDimStyleTableRecord
  2
Standard
 70
     0
178
     0
340
11
  0
ENDTAB
  0
TABLE
  2
BLOCK_RECORD
  5
1
330
0
100
AcDbSymbolTable
 70
     1
  0
BLOCK_RECORD
  5
1D
330
1
100
AcDbSymbolTableRecord
100
AcDbBlockTableRecord
  2
*Model_Space
340
1E
 70
     0
280
     1
281
     0
  0
BLOCK_RECORD
  5
1B
330
1
100
AcDbSymbolTableRecord
100
AcDbBlockTableRecord
  2
*Paper_Space
340
1C
 70
     0
280
     1
281
     0
  0
BLOCK_RECORD
  5
2621
330
1
100
AcDbSymbolTableRecord
100
AcDbBlockTableRecord
  2
*D0
340
0
 70
     0
280
     1
281
     0
  0
ENDTAB
  0
ENDSEC
  0
SECTION
  2
BLOCKS
  0
BLOCK
  5
B5B
330
1D
100
AcDbEntity
  8
0
100
AcDbBlockBegin
  2
*Model_Space
 70
     0
 10
0.0
 20
0.0
 30
0.0
  3
*Model_Space
  1

  0
ENDBLK
  5
B5C
330
1D
100
AcDbEntity
  8
0
100
AcDbBlockEnd
  0
BLOCK
  5
B5D
330
1B
100
AcDbEntity
 67
     1
  8
0
100
AcDbBlockBegin
  2
*Paper_Space
 70
     0
 10
0.0
 20
0.0
 30
0.0
  3
*Paper_Space
  1

  0
ENDBLK
  5
B5E
330
1B
100
AcDbEntity
 67
     1
  8
0
100
AcDbBlockEnd
  0
BLOCK
  5
2622
330
2621
100
AcDbEntity
  8
0
100
AcDbBlockBegin
  2
*D0
 70
     1
 10
0.0
 20
0.0
 30
0.0
  3
*D0
  1

  0
LINE
  5
2624
330
2621
100
AcDbEntity
  8
0
  6
ByBlock
 62
     0
370
    -2
100
AcDbLine
 10
326.357184
 20
186.82672
 30
0.0
 11
326.357184
 21
284.2263167103205
 31
0.0
  0
LINE
  5
2625
330
2621
100
AcDbEntity
  8
0
  6
ByBlock
 62
     0
370
    -2
100
AcDbLine
 10
9.667500249177692
 20
186.8267317601292
 30
0.0
 11
9.667500249177692
 21
284.2263167103205
 31
0.0
  0
LINE
  5
2626
330
2621
100
AcDbEntity
  8
0
  6
ByBlock
 62
     0
370
    -2
100
AcDbLine
 10
326.177184
 20
284.0463167103205
 30
0.0
 11
168.7023421245889
 21
284.0463167103205
 31
0.0
  0
LINE
  5
2627
330
2621
100
AcDbEntity
  8
0
  6
ByBlock
 62
     0
370
    -2
100
AcDbLine
 10
9.847500249177692
 20
284.0463167103205
 30
0.0
 11
167.3223421245889
 21
284.0463167103205
 31
0.0
  0
SOLID
  5
2628
330
2621
100
AcDbEntity
  8
0
 62
     0
100
AcDbTrace
 10
326.177184
 20
284.0163167103206
 30
0.0
 11
326.177184
 21
284.0763167103205
 31
0.0
 12
326.357184
 22
284.0463167103205
 32
0.0
 13
326.357184
 23
284.0463167103205
 33
0.0
  0
SOLID
  5
2629
330
2621
100
AcDbEntity
  8
0
 62
     0
100
AcDbTrace
 10
9.847500249177692
 20
284.0763167103205
 30
0.0
 11
9.847500249177692
 21
284.0163167103206
 31
0.0
 12
9.667500249177692
 22
284.0463167103205
 32
0.0
 13
9.667500249177692
 23
284.0463167103205
 33
0.0
  0
MTEXT
  5
262A
330
2621
100
AcDbEntity
  8
0
  6
ByBlock
 62
     0
100
AcDbMText
 10
168.0123421245889
 20
284.0463167103205
 30
0.0
 40
0.18
 41
0.0
 46
0.0
 71
     5
 72
     1
  1
\A1;316.6897
 73
     1
 44
1.0
  0
POINT
  5
262B
330
2621
100
AcDbEntity
  8
Defpoints
 62
     0
100
AcDbPoint
 10
326.357184
 20
186.76422
 30
0.0
  0
POINT
  5
262C
330
2621
100
AcDbEntity
  8
Defpoints
 62
     0
100
AcDbPoint
 10
9.667500249177692
 20
186.7642317601292
 30
0.0
  0
POINT
  5
262D
330
2621
100
AcDbEntity
  8
Defpoints
 62
     0
100
AcDbPoint
 10
9.667500249177692
 20
284.0463167103205
 30
0.0
  0
ENDBLK
  5
2623
330
2621
100
AcDbEntity
  8
0
100
AcDbBlockEnd
  0
ENDSEC
  0
SECTION
  2
ENTITIES
  0
LINE
  5
2B6
330
1D
100
AcDbEntity
  8
0
 62
     5
100
AcDbLine
 39
2.0
 10
119.777651
 20
140.140647
 30
0.0
 11
119.842492
 21
140.167504
 31
0.0
  0
LINE
  5
2F7
330
1D
100
AcDbEntity
  8
0
 62
     5
100
AcDbLine
 39
2.0
 10
119.777651
 20
90.140645
 30
0.0
 11
119.842492
 21
90.167501
 31
0.0
  0
LINE
  5
316
330
1D
100
AcDbEntity
  8
0
 62
     5
100
AcDbLine
 39
2.0
 10
119.777652
 20
191.140654
 30
0.0
 11
119.842492
 21
191.167511
 31
0.0
  0
LWPOLYLINE
  5
B83
330
1D
100
AcDbEntity
  8
0
  6
ByBlock
100
AcDbPolyline
 90
       38
 70
     1
 43
0.0
 10
24.667498
 20
239.667512
 10
23.08016
 20
239.402717
 10
22.719299
 20
239.34252
 10
21.303959
 20
238.576626
 10
20.982199
 20
238.402508
 10
20.734419
 20
238.133373
 10
19.644499
 20
236.949509
 10
19.497538
 20
236.614431
 10
18.8511
 20
235.140511
 10
18.820887
 20
234.775982
 10
18.687989
 20
233.172511
 10
18.7778
 20
232.817799
 10
19.172858
 20
231.257512
 10
19.372968
 20
230.951199
 10
20.253199
 20
229.603809
 10
21.523102
 20
228.615411
 10
21.811799
 20
228.390711
 10
23.333874
 20
227.868123
 10
23.679898
 20
227.749319
 10
25.289236
 20
227.749319
 10
25.655099
 20
227.74932
 10
27.177173
 20
228.271907
 10
27.523197
 20
228.390711
 10
28.793102
 20
229.379109
 10
29.081799
 20
229.603809
 10
29.281901
 20
229.910121
 10
30.162098
 20
231.257511
 10
30.251915
 20
231.612223
 10
30.646997
 20
233.172511
 10
30.616786
 20
233.53704
 10
30.483899
 20
235.140511
 10
30.336939
 20
235.475588
 10
29.690498
 20
236.949509
 10
29.442718
 20
237.218645
 10
28.352798
 20
238.402509
 10
26.937458
 20
239.168403
 10
26.615698
 20
239.342519
 10
25.028359
 20
239.607314
  0
LWPOLYLINE
  5
C47
102
{ACAD_REACTORS
330
2620
102
}
330
1D
100
AcDbEntity
  8
0
  6
ByBlock
100
AcDbPolyline
 90
       56
 70
     1
 43
0.0
 10
22.959774
 20
249.667507
 10
57.702688
 20
249.667507
 10
65.667496
 20
249.667507
 10
65.667496
 20
170.019426
 10
65.667496
 20
9.667501
 10
57.702689
 20
9.6675
 10
22.959775
 20
9.6675
 10
12.730464
 20
9.6675
 10
9.667501
 20
9.6675
 10
9.667501
 20
11.120105
 10
9.6675
 20
13.716319
 10
9.6778
 20
13.866317
 10
37.540498
 20
13.866317
 10
37.540498
 20
16.612317
 10
9.6778
 20
16.612317
 10
9.6675
 20
16.762316
 10
9.6675
 20
18.271399
 10
9.6675
 20
45.200508
 10
9.667501
 20
52.351807
 10
9.667501
 20
79.280906
 10
9.667501
 20
86.432202
 10
9.667501
 20
91.254841
 10
9.6778
 20
91.40484
 10
37.540498
 20
91.40484
 10
37.540498
 20
94.15084
 10
9.6778
 20
94.15084
 10
9.667501
 20
94.30084
 10
9.6675
 20
113.361307
 10
9.6675
 20
128.144504
 10
9.6778
 20
128.294503
 10
37.540498
 20
128.294503
 10
37.540498
 20
131.040503
 10
9.6778
 20
131.040503
 10
9.6675
 20
131.190503
 10
9.6675
 20
138.822402
 10
9.6675
 20
145.9737
 10
9.6675
 20
165.327543
 10
9.6778
 20
165.477543
 10
37.540498
 20
165.477543
 10
37.540498
 20
168.223543
 10
9.6778
 20
168.223543
 10
9.6675
 20
168.373539
 10
9.6675
 20
172.902805
 10
9.6675
 20
180.054101
 10
9.667501
 20
206.9832
 10
9.6675
 20
214.134499
 10
9.6675
 20
241.063609
 10
9.6675
 20
242.496022
 10
9.6778
 20
242.646022
 10
37.540498
 20
242.646022
 10
37.540498
 20
245.392022
 10
9.677801
 20
245.392022
 10
9.667501
 20
245.542022
 10
9.667501
 20
248.214902
 10
9.6675
 20
249.667507
 10
12.730464
 20
249.667507
  0
LWPOLYLINE
  5
D5E
330
1D
100
AcDbEntity
  8
0
  6
ByBlock
100
AcDbPolyline
 90
       38
 70
     1
 43
0.0
 10
59.440308
 20
230.152618
 10
59.081791
 20
229.603809
 10
58.564546
 20
229.201222
 10
57.523197
 20
228.390711
 10
56.903235
 20
228.177854
 10
55.655092
 20
227.74932
 10
54.99959
 20
227.749319
 10
53.679897
 20
227.749319
 10
53.059936
 20
227.962176
 10
51.811795
 20
228.390711
 10
51.294547
 20
228.793298
 10
50.253195
 20
229.603809
 10
49.531413
 20
230.708702
 10
49.172898
 20
231.257511
 10
48.848918
 20
232.536986
 10
48.687994
 20
233.17251
 10
48.796969
 20
234.487396
 10
48.851098
 20
235.140511
 10
49.381193
 20
236.349162
 10
49.644495
 20
236.949509
 10
50.538257
 20
237.920306
 10
50.982195
 20
238.402509
 10
51.55868
 20
238.714467
 10
52.719293
 20
239.342519
 10
53.365837
 20
239.450373
 10
54.667496
 20
239.667512
 10
55.314038
 20
239.559658
 10
56.615694
 20
239.34252
 10
57.19218
 20
239.030561
 10
58.352793
 20
238.402509
 10
59.246555
 20
237.431712
 10
59.690493
 20
236.949509
 10
60.220591
 20
235.740857
 10
60.483895
 20
235.140511
 10
60.592866
 20
233.825625
 10
60.646993
 20
233.172511
 10
60.323016
 20
231.893037
 10
60.162094
 20
231.257512
  0
LWPOLYLINE
  5
E1B
330
1D
100
AcDbEntity
  8
0
  6
ByBlock
100
AcDbPolyline
 90
       16
 70
     1
 43
0.0
 10
56.678286
 20
204.486384
 10
56.435293
 20
203.899709
 10
55.848619
 20
203.656715
 10
54.667495
 20
203.167505
 10
54.080821
 20
203.410499
 10
52.899695
 20
203.89971
 10
52.410488
 20
205.080835
 10
52.167495
 20
205.66751
 10
52.656702
 20
206.848635
 10
52.899695
 20
207.43531
 10
53.48637
 20
207.678303
 10
54.667495
 20
208.167508
 10
55.254169
 20
207.924516
 10
56.435293
 20
207.43531
 10
56.9245
 20
206.254185
 10
57.167493
 20
205.66751
  0
LWPOLYLINE
  5
E6A
330
1D
100
AcDbEntity
  8
0
  6
ByBlock
100
AcDbPolyline
 90
       38
 70
     1
 43
0.0
 10
27.523197
 20
189.390711
 10
27.177172
 20
189.271905
 10
25.655099
 20
188.749308
 10
25.289237
 20
188.749308
 10
23.679898
 20
188.749307
 10
23.333874
 20
188.868114
 10
21.811799
 20
189.390711
 10
21.523103
 20
189.61541
 10
20.253199
 20
190.603803
 10
19.372968
 20
191.951036
 10
19.172858
 20
192.257312
 10
18.7778
 20
193.817353
 10
18.687989
 20
194.172008
 10
18.820887
 20
195.77581
 10
18.8511
 20
196.140415
 10
19.497539
 20
197.614168
 10
19.644498
 20
197.949207
 10
20.734419
 20
199.133159
 10
20.982199
 20
199.402315
 10
21.303959
 20
199.576446
 10
22.719299
 20
200.342405
 10
23.08016
 20
200.402624
 10
24.667497
 20
200.667512
 10
25.028359
 20
200.607293
 10
26.615698
 20
200.342405
 10
26.937458
 20
200.168274
 10
28.352799
 20
199.402316
 10
29.442718
 20
198.218363
 10
29.690498
 20
197.949206
 10
30.336939
 20
196.475454
 10
30.483899
 20
196.140414
 10
30.616787
 20
194.536613
 10
30.646997
 20
194.172008
 10
30.251915
 20
192.611968
 10
30.162098
 20
192.257312
 10
29.281901
 20
190.91008
 10
29.081799
 20
190.603803
 10
28.793103
 20
190.379105
  0
LWPOLYLINE
  5
F27
330
1D
100
AcDbEntity
  8
0
  6
ByBlock
100
AcDbPolyline
 90
       16
 70
     1
 43
0.0
 10
56.435293
 20
186.899711
 10
55.848619
 20
186.656716
 10
54.667496
 20
186.167507
 10
54.080821
 20
186.410502
 10
52.899695
 20
186.899711
 10
52.410488
 20
188.080837
 10
52.167495
 20
188.667512
 10
52.656702
 20
189.848637
 10
52.899695
 20
190.435312
 10
53.48637
 20
190.678304
 10
54.667495
 20
191.167511
 10
55.254169
 20
190.924518
 10
56.435293
 20
190.435312
 10
56.9245
 20
189.254186
 10
57.167492
 20
188.667511
 10
56.678286
 20
187.486386
  0
LWPOLYLINE
  5
F76
330
1D
100
AcDbEntity
  8
0
  6
ByBlock
100
AcDbPolyline
 90
       16
 70
     1
 43
0.0
 10
56.678286
 20
170.486382
 10
56.435292
 20
169.899707
 10
55.848619
 20
169.656714
 10
54.667495
 20
169.167506
 10
54.080821
 20
169.410499
 10
52.899695
 20
169.899707
 10
52.410488
 20
171.080833
 10
52.167495
 20
171.667508
 10
52.656702
 20
172.848631
 10
52.899695
 20
173.435305
 10
53.48637
 20
173.678299
 10
54.667495
 20
174.16751
 10
55.254169
 20
173.924515
 10
56.435293
 20
173.435305
 10
56.924499
 20
172.254182
 10
57.167493
 20
171.667508
  0
LWPOLYLINE
  5
FC5
330
1D
100
AcDbEntity
  8
0
  6
ByBlock
100
AcDbPolyline
 90
       38
 70
     1
 43
0.0
 10
32.081798
 20
148.603805
 10
31.793101
 20
148.379105
 10
30.523197
 20
147.390704
 10
30.177172
 20
147.271899
 10
28.655097
 20
146.749306
 10
28.289235
 20
146.749305
 10
26.679898
 20
146.749305
 10
26.333873
 20
146.86811
 10
24.811798
 20
147.390704
 10
24.523102
 20
147.615405
 10
23.253198
 20
148.603805
 10
22.373001
 20
149.95103
 10
22.1729
 20
150.257305
 10
21.777816
 20
151.817348
 10
21.688
 20
152.172004
 10
21.820888
 20
153.775804
 10
21.851099
 20
154.140407
 10
22.497539
 20
155.614165
 10
22.644499
 20
155.949205
 10
23.734419
 20
157.133151
 10
23.982199
 20
157.402305
 10
24.303958
 20
157.576439
 10
25.719299
 20
158.342406
 10
26.08016
 20
158.402624
 10
27.667498
 20
158.667505
 10
28.028359
 20
158.607287
 10
29.615699
 20
158.342406
 10
29.937458
 20
158.168273
 10
31.352799
 20
157.402305
 10
32.442718
 20
156.21836
 10
32.690498
 20
155.949205
 10
33.336938
 20
154.475448
 10
33.483897
 20
154.140407
 10
33.616787
 20
152.536608
 10
33.646997
 20
152.172004
 10
33.251914
 20
150.611961
 10
33.162096
 20
150.257305
 10
32.2819
 20
148.91008
  0
LWPOLYLINE
  5
1082
330
1D
100
AcDbEntity
  8
0
  6
ByBlock
100
AcDbPolyline
 90
       16
 70
     1
 43
0.0
 10
56.678286
 20
153.486381
 10
56.435293
 20
152.899706
 10
55.848619
 20
152.656713
 10
54.667496
 20
152.167506
 10
54.080821
 20
152.410499
 10
52.899695
 20
152.899706
 10
52.410488
 20
154.080831
 10
52.167495
 20
154.667505
 10
52.656702
 20
155.84863
 10
52.899695
 20
156.435304
 10
53.48637
 20
156.678297
 10
54.667496
 20
157.167505
 10
55.254169
 20
156.924512
 10
56.435293
 20
156.435304
 10
56.9245
 20
155.254179
 10
57.167493
 20
154.667505
  0
LWPOLYLINE
  5
10D1
330
1D
100
AcDbEntity
  8
0
  6
ByBlock
100
AcDbPolyline
 90
       16
 70
     1
 43
0.0
 10
56.435293
 20
135.899734
 10
55.848619
 20
135.656731
 10
54.667496
 20
135.167504
 10
54.080821
 20
135.410507
 10
52.899695
 20
135.899734
 10
52.410488
 20
137.080839
 10
52.167495
 20
137.667504
 10
52.656702
 20
138.84861
 10
52.899695
 20
139.435274
 10
53.48637
 20
139.678277
 10
54.667495
 20
140.167504
 10
55.254169
 20
139.924502
 10
56.435293
 20
139.435274
 10
56.9245
 20
138.254169
 10
57.167493
 20
137.667504
 10
56.678285
 20
136.486399
  0
LWPOLYLINE
  5
1120
330
1D
100
AcDbEntity
  8
0
  6
ByBlock
100
AcDbPolyline
 90
       16
 70
     1
 43
0.0
 10
56.435293
 20
119.899733
 10
55.848619
 20
119.65673
 10
54.667496
 20
119.167502
 10
54.080821
 20
119.410505
 10
52.899695
 20
119.899733
 10
52.410488
 20
121.080838
 10
52.167495
 20
121.667503
 10
52.656702
 20
122.848608
 10
52.899695
 20
123.435272
 10
53.48637
 20
123.678276
 10
54.667495
 20
124.167503
 10
55.254169
 20
123.9245
 10
56.435293
 20
123.435273
 10
56.9245
 20
122.254167
 10
57.167493
 20
121.667503
 10
56.678286
 20
120.486397
  0
LWPOLYLINE
  5
116F
330
1D
100
AcDbEntity
  8
0
  6
ByBlock
100
AcDbPolyline
 90
       38
 70
     1
 43
0.0
 10
32.081798
 20
102.6038
 10
31.793101
 20
102.3791
 10
30.523197
 20
101.390702
 10
30.177172
 20
101.271896
 10
28.655097
 20
100.749301
 10
28.289235
 20
100.749301
 10
26.679898
 20
100.749301
 10
26.333873
 20
100.868107
 10
24.811798
 20
101.390702
 10
24.523102
 20
101.615402
 10
23.253198
 20
102.6038
 10
22.373001
 20
103.951025
 10
22.172899
 20
104.257299
 10
21.777817
 20
105.817344
 10
21.688
 20
106.172
 10
21.820888
 20
107.7758
 10
21.851099
 20
108.140403
 10
22.497539
 20
109.614162
 10
22.644499
 20
109.949201
 10
23.734419
 20
111.133147
 10
23.982198
 20
111.402301
 10
24.303958
 20
111.576435
 10
25.719299
 20
112.342401
 10
26.08016
 20
112.402619
 10
27.667497
 20
112.667501
 10
28.028359
 20
112.607283
 10
29.615699
 20
112.342401
 10
29.937458
 20
112.168268
 10
31.352799
 20
111.402301
 10
32.442719
 20
110.218357
 10
32.690498
 20
109.949201
 10
33.336938
 20
108.475443
 10
33.483897
 20
108.140403
 10
33.616786
 20
106.536604
 10
33.646997
 20
106.172
 10
33.251914
 20
104.611956
 10
33.162097
 20
104.257299
 10
32.2819
 20
102.910075
  0
LWPOLYLINE
  5
122C
330
1D
100
AcDbEntity
  8
0
  6
ByBlock
100
AcDbPolyline
 90
       16
 70
     1
 43
0.0
 10
56.678286
 20
103.486377
 10
56.435293
 20
102.899703
 10
55.848619
 20
102.65671
 10
54.667495
 20
102.167501
 10
54.080821
 20
102.410495
 10
52.899695
 20
102.899703
 10
52.410488
 20
104.080828
 10
52.167495
 20
104.667502
 10
52.656702
 20
105.848626
 10
52.899695
 20
106.4353
 10
53.48637
 20
106.678294
 10
54.667496
 20
107.167501
 10
55.254169
 20
106.924508
 10
56.435293
 20
106.435301
 10
56.9245
 20
105.254176
 10
57.167493
 20
104.667501
  0
LWPOLYLINE
  5
127B
330
1D
100
AcDbEntity
  8
0
  6
ByBlock
100
AcDbPolyline
 90
       16
 70
     1
 43
0.0
 10
56.678286
 20
86.486376
 10
56.435293
 20
85.899702
 10
55.848619
 20
85.656707
 10
54.667495
 20
85.167498
 10
54.08082
 20
85.410492
 10
52.899695
 20
85.899702
 10
52.410488
 20
87.080825
 10
52.167495
 20
87.667499
 10
52.656702
 20
88.848625
 10
52.899695
 20
89.4353
 10
53.48637
 20
89.678293
 10
54.667495
 20
90.167501
 10
55.254169
 20
89.924508
 10
56.435293
 20
89.4353
 10
56.9245
 20
88.254174
 10
57.167492
 20
87.667499
  0
LWPOLYLINE
  5
12CA
330
1D
100
AcDbEntity
  8
0
  6
ByBlock
100
AcDbPolyline
 90
       38
 70
     1
 43
0.0
 10
29.281901
 20
60.910078
 10
29.081799
 20
60.603805
 10
28.793102
 20
60.379103
 10
27.523197
 20
59.390694
 10
27.177173
 20
59.271891
 10
25.655099
 20
58.749303
 10
25.289236
 20
58.749303
 10
23.679898
 20
58.749303
 10
23.333874
 20
58.868107
 10
21.811799
 20
59.390694
 10
21.523102
 20
59.615396
 10
20.253199
 20
60.603805
 10
19.372967
 20
61.951022
 10
19.172858
 20
62.257295
 10
18.7778
 20
63.817341
 10
18.687989
 20
64.171998
 10
18.820887
 20
65.775795
 10
18.8511
 20
66.140398
 10
19.497538
 20
67.614161
 10
19.644498
 20
67.949202
 10
20.73442
 20
69.133144
 10
20.982199
 20
69.402298
 10
21.303959
 20
69.576432
 10
22.719299
 20
70.3424
 10
23.08016
 20
70.402617
 10
24.667498
 20
70.667495
 10
25.028359
 20
70.607278
 10
26.615698
 20
70.3424
 10
26.937458
 20
70.168267
 10
28.352798
 20
69.402299
 10
29.442718
 20
68.218356
 10
29.690498
 20
67.949202
 10
30.336938
 20
66.475439
 10
30.483899
 20
66.140398
 10
30.616787
 20
64.536601
 10
30.646997
 20
64.171998
 10
30.251915
 20
62.611952
 10
30.162098
 20
62.257295
  0
LWPOLYLINE
  5
1387
330
1D
100
AcDbEntity
  8
0
  6
ByBlock
100
AcDbPolyline
 90
       16
 70
     1
 43
0.0
 10
56.435293
 20
68.899695
 10
55.848619
 20
68.656702
 10
54.667495
 20
68.167496
 10
54.080821
 20
68.410489
 10
52.899695
 20
68.899695
 10
52.410488
 20
70.080821
 10
52.167495
 20
70.667495
 10
52.656702
 20
71.848621
 10
52.899695
 20
72.435296
 10
53.48637
 20
72.67829
 10
54.667496
 20
73.1675
 10
55.254169
 20
72.924506
 10
56.435292
 20
72.435296
 10
56.9245
 20
71.25417
 10
57.167493
 20
70.667495
 10
56.678286
 20
69.48637
  0
LWPOLYLINE
  5
13D6
330
1D
100
AcDbEntity
  8
0
  6
ByBlock
100
AcDbPolyline
 90
       16
 70
     1
 43
0.0
 10
56.678286
 20
52.486372
 10
56.435293
 20
51.899697
 10
55.84862
 20
51.656705
 10
54.667496
 20
51.167498
 10
54.080821
 20
51.410491
 10
52.899695
 20
51.899697
 10
52.410488
 20
53.080823
 10
52.167495
 20
53.667498
 10
52.656702
 20
54.848623
 10
52.899695
 20
55.435297
 10
53.48637
 20
55.678292
 10
54.667496
 20
56.167502
 10
55.254169
 20
55.924508
 10
56.435292
 20
55.435298
 10
56.924499
 20
54.254172
 10
57.167493
 20
53.667498
  0
LWPOLYLINE
  5
1425
330
1D
100
AcDbEntity
  8
0
  6
ByBlock
100
AcDbPolyline
 90
       38
 70
     1
 43
0.0
 10
28.793102
 20
21.378813
 10
27.523197
 20
20.390489
 10
27.177173
 20
20.271758
 10
25.655099
 20
19.749491
 10
25.289236
 20
19.749491
 10
23.679898
 20
19.749492
 10
23.333874
 20
19.868222
 10
21.811799
 20
20.390489
 10
21.523102
 20
20.615172
 10
20.253199
 20
21.603496
 10
19.372967
 20
22.951123
 10
19.172858
 20
23.257489
 10
18.7778
 20
24.817777
 10
18.687989
 20
25.172489
 10
18.820887
 20
26.77597
 10
18.8511
 20
27.140501
 10
19.497538
 20
28.614417
 10
19.644498
 20
28.949493
 10
20.734419
 20
30.133199
 10
20.982199
 20
30.402299
 10
21.303959
 20
30.57643
 10
22.719299
 20
31.342388
 10
23.08016
 20
31.402607
 10
24.667498
 20
31.667496
 10
25.028359
 20
31.607277
 10
26.615698
 20
31.342388
 10
26.937458
 20
31.168258
 10
28.352798
 20
30.402299
 10
29.442718
 20
29.218594
 10
29.690498
 20
28.949493
 10
30.336939
 20
27.475577
 10
30.483899
 20
27.140501
 10
30.616786
 20
25.53702
 10
30.646997
 20
25.172489
 10
30.251915
 20
23.612201
 10
30.162099
 20
23.25749
 10
29.281901
 20
21.909862
 10
29.081799
 20
21.603496
  0
LWPOLYLINE
  5
1426
330
1D
100
AcDbEntity
  8
0
  6
ByBlock
100
AcDbPolyline
 90
       38
 70
     1
 43
0.0
 10
58.564545
 20
21.200939
 10
57.523197
 20
20.390489
 10
56.903235
 20
20.177763
 10
55.655093
 20
19.749491
 10
54.99959
 20
19.749491
 10
53.679897
 20
19.749491
 10
53.059935
 20
19.962217
 10
51.811795
 20
20.390489
 10
51.294547
 20
20.793046
 10
50.253195
 20
21.603496
 10
49.531413
 20
22.708584
 10
49.172899
 20
23.257489
 10
48.848918
 20
24.536964
 10
48.687994
 20
25.172489
 10
48.796969
 20
26.487383
 10
48.851097
 20
27.140501
 10
49.381192
 20
28.349148
 10
49.644495
 20
28.949493
 10
50.538256
 20
29.92016
 10
50.982195
 20
30.402299
 10
51.55868
 20
30.714284
 10
52.719293
 20
31.342388
 10
53.365837
 20
31.450281
 10
54.667496
 20
31.667496
 10
55.314039
 20
31.559604
 10
56.615694
 20
31.342389
 10
57.19218
 20
31.030404
 10
58.352793
 20
30.402299
 10
59.246555
 20
29.431632
 10
59.690493
 20
28.949493
 10
60.220591
 20
27.740846
 10
60.483895
 20
27.140501
 10
60.592867
 20
25.825607
 10
60.646994
 20
25.172489
 10
60.323016
 20
23.893014
 10
60.162094
 20
23.257489
 10
59.440308
 20
22.152402
 10
59.081791
 20
21.603497
  0
LWPOLYLINE
  5
159F
330
1D
100
AcDbEntity
  8
0
  6
ByBlock
100
AcDbPolyline
 90
       95
 70
     0
 43
0.0
 10
214.699874
 20
69.667502
 10
215.685103
 20
69.667502
 10
216.656992
 20
69.667502
 10
217.589285
 20
69.667502
 10
218.456741
 20
69.667502
 10
219.235713
 20
69.667502
 10
219.904982
 20
69.667502
 10
220.44619
 20
69.667502
 10
220.844407
 20
69.667502
 10
221.088628
 20
69.667502
 10
221.171988
 20
69.667502
 10
222.485239
 20
69.667502
 10
229.192487
 20
69.667502
 10
229.192487
 20
67.373342
 10
229.182187
 20
67.223342
 10
209.319489
 20
67.223342
 10
209.319489
 20
64.477342
 10
229.182187
 20
64.477342
 10
229.192487
 20
64.327342
 10
229.192487
 20
60.167503
 10
229.192487
 20
51.310217
 10
229.182187
 20
51.160217
 10
225.319489
 20
51.160217
 10
225.319489
 20
48.414217
 10
253.182187
 20
48.414217
 10
253.192487
 20
48.264217
 10
253.192487
 20
38.667504
 10
253.192487
 20
36.155311
 10
253.182187
 20
36.005311
 10
225.319489
 20
36.005311
 10
225.319489
 20
33.259311
 10
253.182187
 20
33.259311
 10
253.192487
 20
33.109312
 10
253.192487
 20
26.667503
 10
245.223734
 20
26.667503
 10
244.692483
 20
26.667503
 10
244.28091
 20
26.667503
 10
243.960283
 20
26.667503
 10
243.021219
 20
26.667503
 10
242.192486
 20
26.667503
 10
241.363752
 20
26.667502
 10
240.424686
 20
26.667502
 10
234.264768
 20
26.667503
 10
232.568551
 20
26.667503
 10
216.656992
 20
26.667503
 10
215.685103
 20
26.667503
 10
214.699874
 20
26.667503
 10
213.727985
 20
26.667502
 10
212.795693
 20
26.667503
 10
211.928236
 20
26.667503
 10
211.149265
 20
26.667503
 10
210.479997
 20
26.667503
 10
209.938788
 20
26.667502
 10
209.54057
 20
26.667502
 10
209.29635
 20
26.667502
 10
209.21299
 20
26.667503
 10
208.470902
 20
26.667503
 10
206.295158
 20
26.667503
 10
206.21298
 20
26.667503
 10
204.440325
 20
26.667503
 10
201.192491
 20
26.667503
 10
201.192491
 20
18.167501
 10
201.192491
 20
9.6675
 10
199.192491
 20
9.6675
 10
197.192491
 20
9.6675
 10
197.192491
 20
16.105
 10
197.192491
 20
22.5425
 10
197.192491
 20
27.381211
 10
197.192491
 20
27.542501
 10
196.192491
 20
27.542501
 10
195.19249
 20
27.542501
 10
195.19249
 20
25.542501
 10
195.19249
 20
23.542501
 10
192.19249
 20
23.542501
 10
189.19249
 20
23.542501
 10
189.19249
 20
27.542501
 10
189.19249
 20
31.542501
 10
193.192491
 20
31.542501
 10
197.192491
 20
31.542501
 10
197.192491
 20
32.482017
 10
197.192491
 20
60.667503
 10
197.192491
 20
65.506216
 10
197.192491
 20
65.667507
 10
196.192491
 20
65.667507
 10
195.19249
 20
65.667507
 10
195.19249
 20
63.667506
 10
195.19249
 20
61.667505
 10
192.19249
 20
61.667506
 10
189.19249
 20
61.667506
 10
189.19249
 20
65.667504
 10
189.19249
 20
69.667502
 10
193.192491
 20
69.667502
 10
197.192491
 20
69.667502
 10
200.621062
 20
69.667502
 10
215.1924885
 20
69.667502
  0
LWPOLYLINE
  5
15A0
330
1D
100
AcDbEntity
  8
0
  6
ByBlock
100
AcDbPolyline
 90
      101
 70
     1
 43
0.0
 10
317.295953
 20
26.667503
 10
317.13528
 20
26.667502
 10
315.729914
 20
26.667503
 10
315.367483
 20
26.667503
 10
315.005051
 20
26.667502
 10
310.626818
 20
26.667503
 10
309.751901
 20
26.667503
 10
308.950695
 20
26.667503
 10
306.437005
 20
26.667503
 10
303.682482
 20
26.667503
 10
288.820437
 20
26.667502
 10
288.2984
 20
26.667503
 10
286.846614
 20
26.667503
 10
286.341576
 20
26.667502
 10
284.931322
 20
26.667502
 10
284.480668
 20
26.667503
 10
283.281085
 20
26.667503
 10
282.929976
 20
26.667503
 10
282.073487
 20
26.667503
 10
281.872478
 20
26.667503
 10
281.43879
 20
26.667503
 10
280.429459
 20
26.667503
 10
279.517151
 20
26.667502
 10
279.387976
 20
26.667502
 10
278.613751
 20
26.667502
 10
274.367487
 20
26.667502
 10
274.367487
 20
20.780519
 10
274.367487
 20
9.6675
 10
271.75266
 20
9.6675
 10
270.367488
 20
9.6675
 10
270.367488
 20
14.126023
 10
270.367488
 20
22.5425
 10
270.367488
 20
25.893724
 10
270.367488
 20
26.124843
 10
270.367488
 20
27.381531
 10
270.367488
 20
27.542501
 10
269.676323
 20
27.542501
 10
268.367487
 20
27.542501
 10
268.367487
 20
24.924831
 10
268.367487
 20
23.542501
 10
266.293992
 20
23.542501
 10
262.367487
 20
23.542501
 10
262.367487
 20
28.77784
 10
262.367487
 20
31.542501
 10
265.132148
 20
31.542501
 10
270.367488
 20
31.542501
 10
270.367488
 20
32.480152
 10
270.367488
 20
39.800359
 10
270.367488
 20
60.667503
 10
270.367488
 20
64.018729
 10
270.367488
 20
64.249848
 10
270.367488
 20
65.506536
 10
270.367488
 20
65.667507
 10
269.676322
 20
65.667507
 10
268.367487
 20
65.667507
 10
268.367487
 20
63.049836
 10
268.367487
 20
61.667506
 10
266.293992
 20
61.667505
 10
262.367487
 20
61.667506
 10
262.367487
 20
66.902843
 10
262.367487
 20
69.667502
 10
265.132148
 20
69.667502
 10
270.367488
 20
69.667502
 10
277.111412
 20
69.667502
 10
286.846614
 20
69.667502
 10
288.2984
 20
69.667502
 10
288.820437
 20
69.667502
 10
290.139236
 20
69.667502
 10
290.638806
 20
69.667502
 10
291.678191
 20
69.667502
 10
292.103757
 20
69.667502
 10
292.764476
 20
69.667502
 10
293.055506
 20
69.667502
 10
293.288645
 20
69.667502
 10
293.390259
 20
69.667502
 10
295.460175
 20
69.667502
 10
302.367484
 20
69.667502
 10
302.367484
 20
67.373341
 10
302.357184
 20
67.223342
 10
282.494485
 20
67.223342
 10
282.494485
 20
64.477342
 10
302.357184
 20
64.477342
 10
302.367484
 20
64.327342
 10
302.367484
 20
63.087934
 10
302.367484
 20
51.310217
 10
302.357184
 20
51.160217
 10
298.494486
 20
51.160217
 10
298.494486
 20
48.414217
 10
326.357184
 20
48.414217
 10
326.367484
 20
48.264217
 10
326.367484
 20
42.35647
 10
326.367484
 20
36.155311
 10
326.357184
 20
36.005311
 10
298.494486
 20
36.005311
 10
298.494486
 20
33.259311
 10
326.357184
 20
33.259311
 10
326.367484
 20
33.109311
 10
326.367484
 20
26.667503
 10
320.06
 20
26.667503
 10
318.931293
 20
26.667502
 10
317.86748
 20
26.667503
  0
LWPOLYLINE
  5
196C
330
1D
100
AcDbEntity
  8
0
  6
ByBlock
100
AcDbPolyline
 90
      106
 70
     1
 43
0.0
 10
245.992868
 20
95.842504
 10
221.012807
 20
95.842504
 10
208.392107
 20
95.842504
 10
207.817443
 20
95.842504
 10
206.725847
 20
95.842504
 10
205.424384
 20
95.842504
 10
204.266747
 20
95.842504
 10
203.449656
 20
95.842504
 10
202.996635
 20
95.842504
 10
202.845445
 20
95.842504
 10
201.705719
 20
95.842504
 10
201.192491
 20
95.842504
 10
201.19249
 20
95.447834
 10
201.19249
 20
78.842502
 10
197.285354
 20
78.842502
 10
197.192491
 20
78.842502
 10
197.192491
 20
79.141406
 10
197.192491
 20
91.717502
 10
197.192491
 20
91.942172
 10
197.192491
 20
91.957666
 10
197.192491
 20
92.041916
 10
197.192491
 20
92.075243
 10
197.192491
 20
92.300938
 10
197.192491
 20
92.418359
 10
197.192491
 20
94.611955
 10
197.192491
 20
96.717503
 10
196.179196
 20
96.717503
 10
195.19249
 20
96.717503
 10
195.19249
 20
94.744092
 10
195.19249
 20
92.717503
 10
192.152606
 20
92.717503
 10
189.19249
 20
92.717503
 10
189.19249
 20
96.664324
 10
189.19249
 20
100.717503
 10
193.245669
 20
100.717503
 10
197.192491
 20
100.717503
 10
197.192491
 20
112.98232
 10
197.192491
 20
125.76001
 10
197.192491
 20
126.443988
 10
197.192491
 20
127.758663
 10
197.192491
 20
127.952791
 10
197.192491
 20
128.443546
 10
197.192491
 20
129.842505
 10
197.192491
 20
130.067175
 10
197.192491
 20
130.082669
 10
197.192491
 20
130.166919
 10
197.192491
 20
130.200246
 10
197.192491
 20
130.425941
 10
197.192491
 20
130.543363
 10
197.192491
 20
132.736959
 10
197.192491
 20
134.842508
 10
196.179196
 20
134.842508
 10
195.19249
 20
134.842508
 10
195.19249
 20
132.869097
 10
195.19249
 20
130.842507
 10
192.152606
 20
130.842507
 10
189.19249
 20
130.842507
 10
189.19249
 20
134.789327
 10
189.19249
 20
138.842503
 10
193.245669
 20
138.842503
 10
197.192491
 20
138.842503
 10
203.731978
 20
138.842503
 10
204.936449
 20
138.842504
 10
206.028045
 20
138.842504
 10
220.343229
 20
138.842504
 10
221.842909
 20
138.842503
 10
223.317385
 20
138.842503
 10
224.47534
 20
138.842503
 10
225.2322
 20
138.842503
 10
225.626245
 20
138.842503
 10
227.973506
 20
138.842503
 10
228.065897
 20
138.842503
 10
228.729413
 20
138.842503
 10
229.192487
 20
138.842503
 10
229.192487
 20
138.401401
 10
229.192487
 20
136.548343
 10
229.182187
 20
136.398343
 10
209.319489
 20
136.398343
 10
209.319489
 20
133.652343
 10
229.182187
 20
133.652343
 10
229.192487
 20
133.502343
 10
229.192487
 20
120.485218
 10
229.182187
 20
120.335219
 10
225.319489
 20
120.335219
 10
225.319489
 20
117.589219
 10
253.182187
 20
117.589219
 10
253.192487
 20
117.439219
 10
253.192487
 20
105.330313
 10
253.182187
 20
105.180313
 10
225.319489
 20
105.180313
 10
225.319489
 20
102.434313
 10
253.182187
 20
102.434313
 10
253.192487
 20
102.284313
 10
253.192487
 20
95.842504
 10
252.769626
 20
95.842504
 10
252.693956
 20
95.842504
 10
252.585302
 20
95.842504
 10
252.416086
 20
95.842504
 10
252.116113
 20
95.842504
 10
251.539532
 20
95.842504
 10
251.388337
 20
95.842504
 10
250.935304
 20
95.842504
 10
250.118228
 20
95.842504
 10
248.960594
 20
95.842504
 10
247.659128
 20
95.842504
 10
246.567535
 20
95.842504
  0
LWPOLYLINE
  5
1B7D
330
1D
100
AcDbEntity
  8
0
  6
ByBlock
100
AcDbPolyline
 90
      110
 70
     1
 43
0.0
 10
252.576947
 20
165.017506
 10
252.405403
 20
165.017506
 10
252.101302
 20
165.017506
 10
251.473285
 20
165.017506
 10
251.176964
 20
165.017506
 10
250.537902
 20
165.017506
 10
249.524755
 20
165.017506
 10
248.240523
 20
165.017506
 10
246.97915
 20
165.017506
 10
246.108921
 20
165.017506
 10
231.828443
 20
165.017506
 10
208.276054
 20
165.017506
 10
207.405825
 20
165.017506
 10
206.144453
 20
165.017506
 10
204.86022
 20
165.017506
 10
203.847074
 20
165.017506
 10
203.208013
 20
165.017506
 10
202.911688
 20
165.017506
 10
201.739494
 20
165.017506
 10
201.70349
 20
165.017506
 10
201.345368
 20
165.017506
 10
201.192491
 20
165.017506
 10
201.19249
 20
148.417605
 10
201.192491
 20
148.017504
 10
201.098349
 20
148.017504
 10
197.192491
 20
148.017504
 10
197.192491
 20
160.589486
 10
197.192491
 20
160.892503
 10
197.192491
 20
161.135973
 10
197.192491
 20
161.221382
 10
197.192491
 20
161.255167
 10
197.192491
 20
161.483968
 10
197.192491
 20
161.603005
 10
197.192491
 20
163.826784
 10
197.192491
 20
165.892505
 10
196.186618
 20
165.892505
 10
195.19249
 20
165.892505
 10
195.19249
 20
163.904249
 10
195.19249
 20
161.892504
 10
192.174874
 20
161.892505
 10
189.19249
 20
161.892505
 10
189.19249
 20
165.869016
 10
189.19249
 20
169.892505
 10
193.21598
 20
169.892504
 10
197.192491
 20
169.892504
 10
197.192491
 20
181.925326
 10
197.192491
 20
194.878837
 10
197.192491
 20
195.572227
 10
197.192491
 20
196.904991
 10
197.192491
 20
197.10179
 10
197.192491
 20
197.599298
 10
197.192491
 20
197.690796
 10
197.192491
 20
199.017506
 10
197.192491
 20
199.260976
 10
197.192491
 20
199.346385
 10
197.192491
 20
199.38017
 10
197.192491
 20
199.608971
 10
197.192491
 20
199.728008
 10
197.192491
 20
201.951788
 10
197.192491
 20
204.01751
 10
196.186618
 20
204.01751
 10
195.19249
 20
204.01751
 10
195.19249
 20
202.029254
 10
195.19249
 20
200.017509
 10
192.174873
 20
200.017509
 10
189.19249
 20
200.017509
 10
189.19249
 20
203.994018
 10
189.19249
 20
208.017505
 10
193.21598
 20
208.017505
 10
197.192491
 20
208.017505
 10
201.914954
 20
208.017505
 10
203.22856
 20
208.017505
 10
204.332731
 20
208.017505
 10
205.665221
 20
208.017505
 10
219.590059
 20
208.017505
 10
220.958109
 20
208.017505
 10
222.516244
 20
208.017505
 10
223.873105
 20
208.017505
 10
224.844005
 20
208.017505
 10
225.418668
 20
208.017505
 10
225.662445
 20
208.017505
 10
228.01233
 20
208.017505
 10
228.07079
 20
208.017505
 10
228.708594
 20
208.017505
 10
228.727812
 20
208.017505
 10
228.876772
 20
208.017505
 10
229.192487
 20
208.017505
 10
229.192487
 20
205.723344
 10
229.182187
 20
205.573345
 10
209.319489
 20
205.573345
 10
209.319489
 20
202.827345
 10
229.182187
 20
202.827345
 10
229.192487
 20
202.677346
 10
229.192487
 20
189.660219
 10
229.182187
 20
189.51022
 10
225.319489
 20
189.51022
 10
225.319489
 20
186.76422
 10
253.182187
 20
186.76422
 10
253.192487
 20
186.614221
 10
253.192487
 20
174.505314
 10
253.182187
 20
174.355315
 10
225.319489
 20
174.355315
 10
225.319489
 20
171.609315
 10
253.182187
 20
171.609315
 10
253.192487
 20
171.459315
 10
253.192487
 20
165.582355
 10
253.192487
 20
165.017506
 10
252.817392
 20
165.017506
 10
252.763807
 20
165.017506
 10
252.687096
 20
165.017506
  0
LWPOLYLINE
  5
1B7E
102
{ACAD_REACTORS
330
2620
102
}
330
1D
100
AcDbEntity
  8
0
  6
ByBlock
100
AcDbPolyline
 90
      102
 70
     1
 43
0.0
 10
274.367487
 20
153.883706
 10
274.367487
 20
148.017504
 10
272.987205
 20
148.017504
 10
270.367488
 20
148.017503
 10
270.367488
 20
156.449718
 10
270.367488
 20
160.892503
 10
270.367488
 20
164.462201
 10
270.367488
 20
165.714453
 10
270.367488
 20
165.892505
 10
269.131996
 20
165.892505
 10
268.367487
 20
165.892505
 10
268.367487
 20
164.363487
 10
268.367487
 20
161.892504
 10
264.661014
 20
161.892504
 10
262.367487
 20
161.892504
 10
262.367487
 20
164.950541
 10
262.367487
 20
169.892504
 10
267.309451
 20
169.892504
 10
270.367488
 20
169.892504
 10
270.367488
 20
170.929655
 10
270.367488
 20
178.224022
 10
270.367488
 20
179.565537
 10
270.367488
 20
199.017507
 10
270.367488
 20
202.587206
 10
270.367488
 20
203.839459
 10
270.367488
 20
204.01751
 10
269.131996
 20
204.01751
 10
268.367487
 20
204.01751
 10
268.367487
 20
202.488492
 10
268.367487
 20
200.017509
 10
264.661014
 20
200.017509
 10
262.367487
 20
200.017509
 10
262.367487
 20
203.075544
 10
262.367487
 20
208.017505
 10
267.309451
 20
208.017505
 10
270.367488
 20
208.017505
 10
276.265392
 20
208.017505
 10
277.145036
 20
208.017505
 10
287.82006
 20
208.017505
 10
289.207473
 20
208.017505
 10
289.74228
 20
208.017505
 10
290.921658
 20
208.017505
 10
291.406522
 20
208.017505
 10
292.255293
 20
208.017505
 10
292.631346
 20
208.017505
 10
293.076226
 20
208.017505
 10
293.283162
 20
208.017505
 10
295.272735
 20
208.017505
 10
295.554519
 20
208.017505
 10
297.738535
 20
208.017505
 10
302.367484
 20
208.017505
 10
302.367484
 20
205.723345
 10
302.357184
 20
205.573345
 10
282.494486
 20
205.573345
 10
282.494486
 20
202.827345
 10
302.357184
 20
202.827345
 10
302.367484
 20
202.677345
 10
302.367484
 20
195.57385
 10
302.367484
 20
189.66022
 10
302.357184
 20
189.51022
 10
298.494486
 20
189.51022
 10
298.494486
 20
186.76422
 10
326.357184
 20
186.76422
 10
326.367484
 20
186.61422
 10
326.367484
 20
174.505314
 10
326.357184
 20
174.355315
 10
298.494486
 20
174.355315
 10
298.494486
 20
171.609315
 10
326.357184
 20
171.609315
 10
326.367484
 20
171.459315
 10
326.367484
 20
165.017506
 10
320.867918
 20
165.017506
 10
320.082265
 20
165.017506
 10
318.957542
 20
165.017506
 10
317.86748
 20
165.017506
 10
317.635933
 20
165.017506
 10
317.13528
 20
165.017506
 10
316.71192
 20
165.017506
 10
315.367483
 20
165.017506
 10
314.023043
 20
165.017506
 10
313.599683
 20
165.017506
 10
309.182554
 20
165.017506
 10
308.342587
 20
165.017506
 10
305.838934
 20
165.017506
 10
304.715108
 20
165.017506
 10
289.74228
 20
165.017506
 10
289.207473
 20
165.017506
 10
287.82006
 20
165.017506
 10
287.282754
 20
165.017506
 10
285.848643
 20
165.017506
 10
285.348518
 20
165.017506
 10
284.041127
 20
165.017506
 10
283.621015
 20
165.017506
 10
282.592253
 20
165.017506
 10
282.302143
 20
165.017506
 10
281.658023
 20
165.017506
 10
281.546791
 20
165.017506
 10
281.339516
 20
165.017506
 10
279.422784
 20
165.017506
 10
279.387976
 20
165.017506
 10
276.608952
 20
165.017506
 10
274.367487
 20
165.017506
  0
LWPOLYLINE
  5
1F9F
330
1D
100
AcDbEntity
  8
0
  6
ByBlock
100
AcDbPolyline
 90
       38
 70
     1
 43
0.0
 10
168.416193
 20
231.11071
 10
168.512092
 20
231.257511
 10
168.953946
 20
233.002514
 10
168.99699
 20
233.172511
 10
168.848371
 20
234.965809
 10
168.833893
 20
235.140511
 10
168.110923
 20
236.788922
 10
168.040491
 20
236.949509
 10
166.821541
 20
238.273524
 10
166.702792
 20
238.402509
 10
166.548588
 20
238.485954
 10
164.965692
 20
239.34252
 10
164.792748
 20
239.371369
 10
163.017491
 20
239.667512
 10
162.844548
 20
239.638662
 10
161.069292
 20
239.342519
 10
160.915088
 20
239.259073
 10
159.332193
 20
238.402509
 10
158.113241
 20
237.078493
 10
157.994492
 20
236.949509
 10
157.271524
 20
235.301098
 10
157.201093
 20
235.140511
 10
157.052462
 20
233.347212
 10
157.037982
 20
233.172511
 10
157.47981
 20
231.427508
 10
157.522852
 20
231.257512
 10
158.507289
 20
229.75061
 10
158.603192
 20
229.603809
 10
158.741551
 20
229.496121
 10
160.161793
 20
228.390711
 10
160.327626
 20
228.333774
 10
162.029892
 20
227.74932
 10
162.205233
 20
227.749319
 10
164.005093
 20
227.749319
 10
164.170926
 20
227.806256
 10
165.873191
 20
228.39071
 10
166.011549
 20
228.498399
 10
167.431793
 20
229.603809
  0
LWPOLYLINE
  5
205C
330
1D
100
AcDbEntity
  8
0
  6
ByBlock
100
AcDbPolyline
 90
       38
 70
     1
 43
0.0
 10
165.87319
 20
189.390711
 10
164.170926
 20
188.806246
 10
164.005093
 20
188.749308
 10
162.205232
 20
188.749308
 10
162.029892
 20
188.749308
 10
160.327626
 20
189.333773
 10
160.161792
 20
189.390711
 10
158.741551
 20
190.496116
 10
158.603193
 20
190.603803
 10
158.507289
 20
190.750587
 10
157.522852
 20
192.257312
 10
157.479809
 20
192.427282
 10
157.037982
 20
194.172009
 10
157.052462
 20
194.346746
 10
157.201093
 20
196.140414
 10
157.271524
 20
196.300983
 10
157.994492
 20
197.949206
 10
158.113241
 20
198.078201
 10
159.332193
 20
199.402315
 10
160.915088
 20
200.258952
 10
161.069292
 20
200.342404
 10
162.844548
 20
200.638652
 10
163.017491
 20
200.667512
 10
164.792748
 20
200.371265
 10
164.965692
 20
200.342404
 10
166.548588
 20
199.485768
 10
166.702792
 20
199.402315
 10
166.821541
 20
199.273321
 10
168.040492
 20
197.949207
 10
168.110923
 20
197.788638
 10
168.833893
 20
196.140414
 10
168.848371
 20
195.965677
 10
168.996991
 20
194.172008
 10
168.953945
 20
194.002039
 10
168.512092
 20
192.257312
 10
168.416192
 20
192.110528
 10
167.431793
 20
190.603803
 10
166.011549
 20
189.498399
  0
LWPOLYLINE
  5
2119
330
1D
100
AcDbEntity
  8
0
  6
ByBlock
100
AcDbPolyline
 90
       39
 70
     0
 43
0.0
 10
171.040492
 20
155.949206
 10
171.110923
 20
155.788636
 10
171.833891
 20
154.140407
 10
171.84837
 20
153.96567
 10
171.996991
 20
152.172005
 10
171.953946
 20
152.002034
 10
171.51209
 20
150.257305
 10
171.416191
 20
150.110522
 10
170.431791
 20
148.603805
 10
169.011549
 20
147.498393
 10
168.87319
 20
147.390704
 10
167.170925
 20
146.806243
 10
167.005091
 20
146.749305
 10
165.205232
 20
146.749305
 10
165.029891
 20
146.749305
 10
163.327625
 20
147.333766
 10
163.161792
 20
147.390704
 10
161.741551
 20
148.496117
 10
161.603192
 20
148.603806
 10
161.507292
 20
148.750589
 10
160.522893
 20
150.257305
 10
160.479848
 20
150.427274
 10
160.037993
 20
152.172004
 10
160.052472
 20
152.346742
 10
160.201092
 20
154.140407
 10
160.271523
 20
154.300976
 10
160.994493
 20
155.949205
 10
161.113242
 20
156.078199
 10
162.332192
 20
157.402305
 10
163.915088
 20
158.258953
 10
164.069292
 20
158.342406
 10
165.844547
 20
158.638645
 10
166.017491
 20
158.667505
 10
167.792748
 20
158.371266
 10
167.965692
 20
158.342407
 10
169.548588
 20
157.485759
 10
169.702793
 20
157.402305
 10
169.821541
 20
157.273312
 10
171.0757075
 20
155.868921
  0
LWPOLYLINE
  5
21D6
330
1D
100
AcDbEntity
  8
0
  6
ByBlock
100
AcDbPolyline
 90
       38
 70
     1
 43
0.0
 10
170.431792
 20
102.6038
 10
169.011549
 20
101.49839
 10
168.873191
 20
101.390702
 10
167.170924
 20
100.806239
 10
167.005091
 20
100.749301
 10
165.205232
 20
100.749302
 10
165.029891
 20
100.749301
 10
163.327625
 20
101.333764
 10
163.161792
 20
101.390702
 10
161.74155
 20
102.496112
 10
161.603191
 20
102.6038
 10
161.507293
 20
102.750583
 10
160.522893
 20
104.2573
 10
160.479848
 20
104.42727
 10
160.037993
 20
106.172
 10
160.052472
 20
106.346738
 10
160.201092
 20
108.140403
 10
160.271524
 20
108.300972
 10
160.994493
 20
109.949201
 10
161.113242
 20
110.078195
 10
162.332192
 20
111.402302
 10
163.915088
 20
112.258948
 10
164.069292
 20
112.342401
 10
165.844548
 20
112.638641
 10
166.017491
 20
112.667501
 10
167.792748
 20
112.371261
 10
167.965692
 20
112.342401
 10
169.548588
 20
111.485755
 10
169.702792
 20
111.402302
 10
169.821542
 20
111.273308
 10
171.040492
 20
109.949202
 10
171.110923
 20
109.788632
 10
171.833891
 20
108.140403
 10
171.84837
 20
107.965666
 10
171.99699
 20
106.172
 10
171.953946
 20
106.00203
 10
171.51209
 20
104.257299
 10
171.416191
 20
104.110516
  0
LWPOLYLINE
  5
2293
330
1D
100
AcDbEntity
  8
0
  6
ByBlock
100
AcDbPolyline
 90
       38
 70
     1
 43
0.0
 10
168.416193
 20
62.110513
 10
167.431793
 20
60.603805
 10
166.011549
 20
59.498384
 10
165.87319
 20
59.390695
 10
164.170926
 20
58.806241
 10
164.005093
 20
58.749303
 10
162.205233
 20
58.749303
 10
162.029892
 20
58.749303
 10
160.327626
 20
59.333758
 10
160.161792
 20
59.390695
 10
158.741551
 20
60.496116
 10
158.603192
 20
60.603805
 10
158.507289
 20
60.750587
 10
157.522852
 20
62.257295
 10
157.479809
 20
62.427266
 10
157.037983
 20
64.171998
 10
157.052462
 20
64.346735
 10
157.201093
 20
66.140397
 10
157.271524
 20
66.300967
 10
157.994492
 20
67.949202
 10
158.113241
 20
68.078195
 10
159.332193
 20
69.402299
 10
160.915088
 20
70.258946
 10
161.069292
 20
70.3424
 10
162.844548
 20
70.638636
 10
163.017491
 20
70.667495
 10
164.792748
 20
70.371259
 10
164.965692
 20
70.3424
 10
166.548587
 20
69.485753
 10
166.702792
 20
69.402299
 10
166.821541
 20
69.273305
 10
168.040491
 20
67.949202
 10
168.110922
 20
67.788632
 10
168.833892
 20
66.140398
 10
168.848371
 20
65.965661
 10
168.99699
 20
64.171998
 10
168.953946
 20
64.002027
 10
168.512092
 20
62.257295
  0
LWPOLYLINE
  5
2350
330
1D
100
AcDbEntity
  8
0
  6
ByBlock
100
AcDbPolyline
 90
       38
 70
     1
 43
0.0
 10
166.01155
 20
20.498169
 10
165.87319
 20
20.390489
 10
164.170926
 20
19.806393
 10
164.005093
 20
19.749492
 10
162.205233
 20
19.749492
 10
162.029892
 20
19.749491
 10
160.327626
 20
20.333587
 10
160.161792
 20
20.390489
 10
158.741551
 20
21.495816
 10
158.603192
 20
21.603497
 10
158.50729
 20
21.750324
 10
157.522852
 20
23.25749
 10
157.479809
 20
23.427486
 10
157.037983
 20
25.172489
 10
157.052462
 20
25.347191
 10
157.201093
 20
27.140501
 10
157.271524
 20
27.301087
 10
157.994492
 20
28.949493
 10
158.113241
 20
29.07846
 10
159.332193
 20
30.402299
 10
160.915088
 20
31.258936
 10
161.069292
 20
31.342389
 10
162.844548
 20
31.638636
 10
163.017491
 20
31.667496
 10
164.792748
 20
31.371248
 10
164.965692
 20
31.342388
 10
166.548588
 20
30.485752
 10
166.702792
 20
30.402299
 10
166.821541
 20
30.273332
 10
168.040492
 20
28.949493
 10
168.110923
 20
28.788907
 10
168.833892
 20
27.140501
 10
168.848371
 20
26.965799
 10
168.99699
 20
25.172489
 10
168.953946
 20
25.002492
 10
168.512092
 20
23.257489
 10
168.416193
 20
23.110663
 10
167.431793
 20
21.603497
  0
LWPOLYLINE
  5
2410
330
1D
100
AcDbEntity
  8
0
  6
ByBlock
100
AcDbPolyline
 90
      105
 70
     1
 43
0.0
 10
149.480175
 20
9.6675
 10
148.017494
 20
9.6675
 10
148.017494
 20
9.741777
 10
148.017494
 20
11.292498
 10
146.108911
 20
11.292498
 10
145.74324
 20
11.292498
 10
140.017493
 20
11.292498
 10
140.017493
 20
13.716319
 10
140.027793
 20
13.866317
 10
159.890491
 20
13.866317
 10
159.890492
 20
16.612317
 10
140.027793
 20
16.612317
 10
140.017493
 20
16.762317
 10
140.017493
 20
19.292495
 10
145.74324
 20
19.292494
 10
146.108911
 20
19.292494
 10
148.017494
 20
19.292494
 10
148.017494
 20
20.669472
 10
148.017494
 20
49.417503
 10
146.108911
 20
49.417502
 10
145.743241
 20
49.417503
 10
140.017493
 20
49.417503
 10
140.017493
 20
53.600342
 10
140.017493
 20
57.417505
 10
145.74324
 20
57.417504
 10
146.108911
 20
57.417505
 10
148.017494
 20
57.417505
 10
148.017494
 20
58.794482
 10
148.017494
 20
87.542501
 10
146.108911
 20
87.542501
 10
145.743241
 20
87.542501
 10
140.017493
 20
87.542501
 10
140.017493
 20
91.25484
 10
140.027793
 20
91.40484
 10
159.890492
 20
91.40484
 10
159.890492
 20
94.15084
 10
140.027793
 20
94.15084
 10
140.017493
 20
94.300838
 10
140.017493
 20
95.5425
 10
145.74324
 20
95.5425
 10
146.108911
 20
95.542501
 10
148.017494
 20
95.5425
 10
148.017494
 20
96.919478
 10
148.017494
 20
125.667503
 10
146.108911
 20
125.667503
 10
145.743241
 20
125.667503
 10
140.017493
 20
125.667503
 10
140.017493
 20
128.144505
 10
140.027793
 20
128.294503
 10
159.890491
 20
128.294503
 10
159.890491
 20
131.040504
 10
140.027793
 20
131.040504
 10
140.017493
 20
131.190503
 10
140.017493
 20
133.667504
 10
145.74324
 20
133.667504
 10
146.108911
 20
133.667504
 10
148.017494
 20
133.667504
 10
148.017494
 20
135.044481
 10
148.017494
 20
163.792507
 10
146.108911
 20
163.792507
 10
145.74324
 20
163.792507
 10
140.017493
 20
163.792507
 10
140.017493
 20
165.327543
 10
140.027793
 20
165.477543
 10
159.890491
 20
165.477543
 10
159.890492
 20
168.223543
 10
140.027793
 20
168.223543
 10
140.017493
 20
168.373543
 10
140.017493
 20
171.792506
 10
145.74324
 20
171.792506
 10
146.108911
 20
171.792506
 10
148.017494
 20
171.792506
 10
148.017494
 20
173.169484
 10
148.017494
 20
201.917502
 10
146.108911
 20
201.917503
 10
145.74324
 20
201.917502
 10
140.017493
 20
201.917502
 10
140.017493
 20
206.100342
 10
140.017493
 20
209.917505
 10
145.743241
 20
209.917505
 10
146.108911
 20
209.917505
 10
148.017494
 20
209.917505
 10
148.017494
 20
211.294483
 10
148.017494
 20
240.042513
 10
146.108911
 20
240.042513
 10
145.74324
 20
240.042513
 10
140.017493
 20
240.042513
 10
140.017493
 20
242.496022
 10
140.027793
 20
242.646022
 10
159.890492
 20
242.646022
 10
159.890492
 20
245.392022
 10
140.027793
 20
245.392022
 10
140.017493
 20
245.542019
 10
140.017493
 20
248.042509
 10
145.743241
 20
248.04251
 10
146.108911
 20
248.042509
 10
148.017494
 20
248.04251
 10
148.017494
 20
248.116786
 10
148.017494
 20
249.667507
 10
149.480175
 20
249.667507
 10
166.445365
 20
249.667507
 10
180.01749
 20
249.667507
 10
180.01749
 20
57.884268
 10
180.01749
 20
9.6675
 10
166.445365
 20
9.6675
  0
LWPOLYLINE
  5
262E
330
1D
100
AcDbEntity
  8
0
  6
ByBlock
100
AcDbPolyline
 90
       38
 70
     1
 43
0.0
 10
94.256796
 20
229.603809
 10
93.418785
 20
228.951565
 10
92.698193
 20
228.390711
 10
91.693777
 20
228.045855
 10
90.830096
 20
227.74932
 10
89.768094
 20
227.749319
 10
88.854895
 20
227.749319
 10
87.850478
 20
228.094175
 10
86.986795
 20
228.390711
 10
86.148786
 20
229.042955
 10
85.428195
 20
229.603809
 10
84.928719
 20
230.368369
 10
84.347854
 20
231.257512
 10
84.123684
 20
232.142878
 10
83.862985
 20
233.172511
 10
83.938397
 20
234.082381
 10
84.026096
 20
235.140511
 10
84.39291
 20
235.976869
 10
84.819495
 20
236.949509
 10
85.437957
 20
237.621278
 10
86.157196
 20
238.402508
 10
87.091178
 20
238.907923
 10
87.894295
 20
239.34252
 10
88.941779
 20
239.517257
 10
89.842494
 20
239.667512
 10
90.889979
 20
239.492774
 10
91.790695
 20
239.342519
 10
92.724677
 20
238.837106
 10
93.527795
 20
238.402509
 10
94.146256
 20
237.73074
 10
94.865495
 20
236.949509
 10
95.232309
 20
236.113151
 10
95.658895
 20
235.140511
 10
95.734301
 20
234.230641
 10
95.821994
 20
233.172511
 10
95.597809
 20
232.287145
 10
95.337095
 20
231.257511
 10
94.837638
 20
230.492951
  0
LWPOLYLINE
  5
262F
330
1D
100
AcDbEntity
  8
0
  6
ByBlock
100
AcDbPolyline
 90
       38
 70
     1
 43
0.0
 10
125.297466
 20
231.196856
 10
124.256787
 20
229.603809
 10
122.755361
 20
228.435205
 10
122.698194
 20
228.390711
 10
120.898609
 20
227.772845
 10
120.830089
 20
227.74932
 10
118.927341
 20
227.749319
 10
118.854893
 20
227.749319
 10
117.055311
 20
228.367186
 10
116.986791
 20
228.390711
 10
115.485359
 20
229.559314
 10
115.428191
 20
229.603809
 10
115.388567
 20
229.664465
 10
114.347895
 20
231.257511
 10
114.330109
 20
231.327751
 10
113.862991
 20
233.17251
 10
113.868973
 20
233.244694
 10
114.026094
 20
235.140511
 10
114.055195
 20
235.206863
 10
114.819491
 20
236.949509
 10
114.868556
 20
237.002803
 10
116.157191
 20
238.402509
 10
117.830575
 20
239.308041
 10
117.89429
 20
239.342519
 10
119.771034
 20
239.655591
 10
119.842492
 20
239.667512
 10
121.719233
 20
239.35444
 10
121.79069
 20
239.34252
 10
123.464075
 20
238.436988
 10
123.527789
 20
238.402509
 10
123.576855
 20
238.349215
 10
124.86549
 20
236.949509
 10
124.89459
 20
236.883157
 10
125.658892
 20
235.140511
 10
125.664873
 20
235.068327
 10
125.82199
 20
233.172511
 10
125.804205
 20
233.102272
 10
125.337091
 20
231.257512
  0
LWPOLYLINE
  5
27A8
330
1D
100
AcDbEntity
  8
0
  6
ByBlock
100
AcDbPolyline
 90
       38
 70
     1
 43
0.0
 10
92.698193
 20
189.390711
 10
91.693777
 20
189.045849
 10
90.830096
 20
188.749308
 10
89.768094
 20
188.749308
 10
88.854894
 20
188.749307
 10
87.850478
 20
189.09417
 10
86.986795
 20
189.390711
 10
86.148786
 20
190.042952
 10
85.428196
 20
190.603803
 10
84.928719
 20
191.368274
 10
84.347855
 20
192.257312
 10
84.123684
 20
193.142538
 10
83.862985
 20
194.172008
 10
83.938397
 20
195.082066
 10
84.026096
 20
196.140415
 10
84.39291
 20
196.976677
 10
84.819495
 20
197.949207
 10
85.437957
 20
198.621026
 10
86.157195
 20
199.402315
 10
87.091178
 20
199.907771
 10
87.894295
 20
200.342405
 10
88.941779
 20
200.517204
 10
89.842494
 20
200.667512
 10
90.889979
 20
200.492712
 10
91.790694
 20
200.342405
 10
92.724678
 20
199.836949
 10
93.527795
 20
199.402316
 10
94.146256
 20
198.730497
 10
94.865494
 20
197.949206
 10
95.232309
 20
197.112944
 10
95.658895
 20
196.140414
 10
95.734301
 20
195.230357
 10
95.821994
 20
194.172008
 10
95.597809
 20
193.286783
 10
95.337095
 20
192.257312
 10
94.837638
 20
191.492842
 10
94.256796
 20
190.603803
 10
93.418785
 20
189.951563
  0
LWPOLYLINE
  5
27A9
330
1D
100
AcDbEntity
  8
0
  6
ByBlock
100
AcDbPolyline
 90
       16
 70
     1
 43
0.0
 10
122.342489
 20
205.66751
 10
121.637145
 20
207.37047
 10
121.610289
 20
207.43531
 10
121.545448
 20
207.462166
 10
119.842491
 20
208.167508
 10
119.777651
 20
208.140652
 10
118.074692
 20
207.43531
 10
117.369348
 20
205.73235
 10
117.342492
 20
205.66751
 10
118.047835
 20
203.96455
 10
118.074691
 20
203.89971
 10
118.139532
 20
203.872853
 10
119.842492
 20
203.167505
 10
119.907332
 20
203.194361
 10
121.610289
 20
203.899709
 10
122.315633
 20
205.602669
  0
LWPOLYLINE
  5
27AA
330
1D
100
AcDbEntity
  8
0
  6
ByBlock
100
AcDbPolyline
 90
       15
 70
     1
 43
0.0
 10
121.610289
 20
186.899711
 10
119.907333
 20
186.194363
 10
119.842492
 20
186.167507
 10
118.139532
 20
186.872855
 10
118.074691
 20
186.899711
 10
118.047835
 20
186.964552
 10
117.342492
 20
188.667512
 10
117.369348
 20
188.732352
 10
118.074692
 20
190.435312
 10
119.842492
 20
191.167511
 10
121.545449
 20
190.462168
 10
121.610289
 20
190.435312
 10
121.637145
 20
190.370472
 10
122.342489
 20
188.667511
 10
122.315633
 20
188.602671
  0
LWPOLYLINE
  5
2902
330
1D
100
AcDbEntity
  8
0
  6
ByBlock
100
AcDbPolyline
 90
       38
 70
     1
 43
0.0
 10
97.256794
 20
148.603805
 10
96.418785
 20
147.95156
 10
95.698193
 20
147.390704
 10
94.693777
 20
147.045845
 10
93.830094
 20
146.749306
 10
92.768092
 20
146.749305
 10
91.854894
 20
146.749305
 10
90.850477
 20
147.094165
 10
89.986795
 20
147.390704
 10
89.148786
 20
148.04295
 10
88.428195
 20
148.603805
 10
87.928737
 20
149.368271
 10
87.347896
 20
150.257305
 10
87.123711
 20
151.142532
 10
86.862996
 20
152.172004
 10
86.938402
 20
153.08206
 10
87.026095
 20
154.140407
 10
87.39291
 20
154.976673
 10
87.819496
 20
155.949205
 10
88.437957
 20
156.621021
 10
89.157195
 20
157.402305
 10
90.091178
 20
157.907768
 10
90.894295
 20
158.342406
 10
91.941779
 20
158.517202
 10
92.842494
 20
158.667505
 10
93.889979
 20
158.49271
 10
94.790695
 20
158.342406
 10
95.724678
 20
157.836944
 10
96.527796
 20
157.402305
 10
97.146256
 20
156.73049
 10
97.865495
 20
155.949205
 10
98.232309
 20
155.11294
 10
98.658894
 20
154.140407
 10
98.7343
 20
153.230351
 10
98.821994
 20
152.172004
 10
98.597808
 20
151.286777
 10
98.337093
 20
150.257305
 10
97.837636
 20
149.492839
  0
LWPOLYLINE
  5
2903
330
1D
100
AcDbEntity
  8
0
  6
ByBlock
100
AcDbPolyline
 90
       16
 70
     1
 43
0.0
 10
122.315633
 20
154.602665
 10
121.610289
 20
152.899706
 10
119.907333
 20
152.194362
 10
119.842492
 20
152.167506
 10
118.139532
 20
152.87285
 10
118.074692
 20
152.899706
 10
118.047835
 20
152.964547
 10
117.342491
 20
154.667505
 10
117.369348
 20
154.732346
 10
118.074692
 20
156.435304
 10
119.777651
 20
157.140649
 10
119.842492
 20
157.167505
 10
121.545449
 20
156.46216
 10
121.610289
 20
156.435304
 10
121.637145
 20
156.370464
 10
122.342489
 20
154.667505
  0
LWPOLYLINE
  5
2904
330
1D
100
AcDbEntity
  8
0
  6
ByBlock
100
AcDbPolyline
 90
       17
 70
     0
 43
0.0
 10
117.342492
 20
171.667508
 10
117.369348
 20
171.732348
 10
118.047835
 20
169.964548
 10
118.074691
 20
169.899707
 10
118.139532
 20
169.872851
 10
119.842492
 20
169.167506
 10
119.907332
 20
169.194362
 10
121.610289
 20
169.899707
 10
122.315633
 20
171.602667
 10
122.342489
 20
171.667508
 10
121.637145
 20
173.370465
 10
121.610289
 20
173.435305
 10
121.545449
 20
173.462161
 10
119.842492
 20
174.16751
 10
119.777651
 20
174.140653
 10
118.074692
 20
173.435305
 10
117.369348
 20
171.732348
  0
LWPOLYLINE
  5
2905
330
1D
100
AcDbEntity
  8
0
  6
ByBlock
100
AcDbPolyline
 90
       15
 70
     1
 43
0.0
 10
121.610289
 20
135.899734
 10
119.907332
 20
135.194361
 10
119.842492
 20
135.167504
 10
118.139532
 20
135.872877
 10
118.074692
 20
135.899734
 10
118.047835
 20
135.964573
 10
117.342492
 20
137.667504
 10
117.369347
 20
137.732344
 10
118.074692
 20
139.435274
 10
119.842492
 20
140.167504
 10
121.545448
 20
139.462132
 10
121.610289
 20
139.435274
 10
121.637145
 20
139.370435
 10
122.342489
 20
137.667504
 10
122.315633
 20
137.602665
  0
LWPOLYLINE
  5
2AAB
330
1D
100
AcDbEntity
  8
0
  6
ByBlock
100
AcDbPolyline
 90
       38
 70
     1
 43
0.0
 10
97.256794
 20
102.6038
 10
96.418785
 20
101.951556
 10
95.698194
 20
101.390702
 10
94.693777
 20
101.045841
 10
93.830094
 20
100.749301
 10
92.768093
 20
100.749301
 10
91.854894
 20
100.749301
 10
90.850477
 20
101.094162
 10
89.986795
 20
101.390702
 10
89.148786
 20
102.042945
 10
88.428195
 20
102.6038
 10
87.928737
 20
103.368266
 10
87.347895
 20
104.257299
 10
87.123711
 20
105.142528
 10
86.862996
 20
106.172
 10
86.938402
 20
107.082057
 10
87.026095
 20
108.140403
 10
87.39291
 20
108.976669
 10
87.819496
 20
109.949201
 10
88.437957
 20
110.621017
 10
89.157195
 20
111.402301
 10
90.091178
 20
111.907763
 10
90.894295
 20
112.342401
 10
91.941779
 20
112.517197
 10
92.842494
 20
112.667501
 10
93.889979
 20
112.492705
 10
94.790695
 20
112.342401
 10
95.724678
 20
111.83694
 10
96.527795
 20
111.402301
 10
97.146257
 20
110.730487
 10
97.865495
 20
109.949201
 10
98.232309
 20
109.112936
 10
98.658894
 20
108.140403
 10
98.7343
 20
107.230347
 10
98.821994
 20
106.172
 10
98.597809
 20
105.286773
 10
98.337093
 20
104.257299
 10
97.837636
 20
103.492833
  0
LWPOLYLINE
  5
2AAC
330
1D
100
AcDbEntity
  8
0
  6
ByBlock
100
AcDbPolyline
 90
       16
 70
     1
 43
0.0
 10
122.315633
 20
121.602663
 10
122.342489
 20
121.667503
 10
121.637145
 20
123.370433
 10
121.610289
 20
123.435273
 10
121.545449
 20
123.46213
 10
119.842492
 20
124.167503
 10
119.777651
 20
124.140646
 10
118.074691
 20
123.435272
 10
117.369348
 20
121.732342
 10
117.342491
 20
121.667503
 10
118.047835
 20
119.964572
 10
118.074691
 20
119.899733
 10
118.139532
 20
119.872875
 10
119.842492
 20
119.167502
 10
119.907332
 20
119.19436
 10
121.610289
 20
119.899733
  0
LWPOLYLINE
  5
2AAD
330
1D
100
AcDbEntity
  8
0
  6
ByBlock
100
AcDbPolyline
 90
       16
 70
     1
 43
0.0
 10
122.315633
 20
104.602661
 10
121.610289
 20
102.899703
 10
119.907332
 20
102.194358
 10
119.842492
 20
102.167501
 10
118.139532
 20
102.872847
 10
118.074692
 20
102.899703
 10
118.047835
 20
102.964544
 10
117.342491
 20
104.667502
 10
117.369348
 20
104.732342
 10
118.074691
 20
106.4353
 10
119.777651
 20
107.140645
 10
119.842492
 20
107.167501
 10
121.545449
 20
106.462157
 10
121.610289
 20
106.435301
 10
121.637145
 20
106.37046
 10
122.342489
 20
104.667501
  0
LWPOLYLINE
  5
2AAE
330
1D
100
AcDbEntity
  8
0
  6
ByBlock
100
AcDbPolyline
 90
       15
 70
     1
 43
0.0
 10
122.315633
 20
87.602659
 10
121.610289
 20
85.899702
 10
119.907332
 20
85.194354
 10
119.842491
 20
85.167498
 10
118.139532
 20
85.872846
 10
118.074691
 20
85.899702
 10
118.047836
 20
85.964542
 10
117.342492
 20
87.667499
 10
117.369348
 20
87.73234
 10
118.074692
 20
89.4353
 10
119.842492
 20
90.167501
 10
121.545449
 20
89.462156
 10
121.610289
 20
89.4353
 10
121.637145
 20
89.370459
 10
122.342489
 20
87.667499
  0
LWPOLYLINE
  5
2C54
330
1D
100
AcDbEntity
  8
0
  6
ByBlock
100
AcDbPolyline
 90
       38
 70
     1
 43
0.0
 10
94.837638
 20
61.492833
 10
94.256796
 20
60.603805
 10
93.418785
 20
59.951555
 10
92.698193
 20
59.390694
 10
91.693778
 20
59.045839
 10
90.830096
 20
58.749303
 10
89.768094
 20
58.749303
 10
88.854895
 20
58.749303
 10
87.850478
 20
59.094159
 10
86.986795
 20
59.390694
 10
86.148786
 20
60.042945
 10
85.428195
 20
60.603805
 10
84.928719
 20
61.368267
 10
84.347854
 20
62.257295
 10
84.123684
 20
63.142524
 10
83.862985
 20
64.171998
 10
83.938396
 20
65.082053
 10
84.026096
 20
66.140398
 10
84.39291
 20
66.976666
 10
84.819495
 20
67.949202
 10
85.437957
 20
68.621015
 10
86.157196
 20
69.402298
 10
87.091178
 20
69.907761
 10
87.894295
 20
70.3424
 10
88.941779
 20
70.517193
 10
89.842494
 20
70.667495
 10
90.889978
 20
70.492702
 10
91.790694
 20
70.3424
 10
92.724677
 20
69.836938
 10
93.527795
 20
69.402299
 10
94.146256
 20
68.730485
 10
94.865494
 20
67.949202
 10
95.232309
 20
67.112933
 10
95.658895
 20
66.140398
 10
95.734301
 20
65.230343
 10
95.821994
 20
64.171998
 10
95.597809
 20
63.286769
 10
95.337095
 20
62.257295
  0
LWPOLYLINE
  5
2C55
330
1D
100
AcDbEntity
  8
0
  6
ByBlock
100
AcDbPolyline
 90
       16
 70
     1
 43
0.0
 10
122.315633
 20
70.602655
 10
122.342489
 20
70.667495
 10
121.637145
 20
72.370455
 10
121.610289
 20
72.435296
 10
121.545449
 20
72.462152
 10
119.842492
 20
73.1675
 10
119.777651
 20
73.140644
 10
118.074692
 20
72.435296
 10
117.369348
 20
70.732336
 10
117.342491
 20
70.667495
 10
118.047836
 20
68.964536
 10
118.074692
 20
68.899695
 10
118.139532
 20
68.872839
 10
119.842492
 20
68.167496
 10
119.907332
 20
68.194352
 10
121.610289
 20
68.899695
  0
LWPOLYLINE
  5
2C56
330
1D
100
AcDbEntity
  8
0
  6
ByBlock
100
AcDbPolyline
 90
       16
 70
     1
 43
0.0
 10
122.342489
 20
53.667498
 10
121.637145
 20
55.370457
 10
121.610289
 20
55.435298
 10
121.545449
 20
55.462154
 10
119.842492
 20
56.167502
 10
119.777651
 20
56.140646
 10
118.074692
 20
55.435297
 10
117.369348
 20
53.732338
 10
117.342492
 20
53.667498
 10
118.047835
 20
51.964538
 10
118.074691
 20
51.899697
 10
118.139532
 20
51.872841
 10
119.842492
 20
51.167498
 10
119.907333
 20
51.194355
 10
121.610289
 20
51.899697
 10
122.315633
 20
53.602657
  0
LWPOLYLINE
  5
2DAF
330
1D
100
AcDbEntity
  8
0
  6
ByBlock
100
AcDbPolyline
 90
       38
 70
     1
 43
0.0
 10
93.418785
 20
20.951301
 10
92.698193
 20
20.390489
 10
91.693777
 20
20.045845
 10
90.830096
 20
19.749491
 10
89.768093
 20
19.749491
 10
88.854894
 20
19.749492
 10
87.850478
 20
20.094135
 10
86.986795
 20
20.390489
 10
86.148786
 20
21.042684
 10
85.428195
 20
21.603496
 10
84.928719
 20
22.36819
 10
84.347854
 20
23.257489
 10
84.123684
 20
24.142855
 10
83.862985
 20
25.172489
 10
83.938397
 20
26.082365
 10
84.026096
 20
27.140501
 10
84.39291
 20
27.976857
 10
84.819495
 20
28.949493
 10
85.437957
 20
29.621172
 10
86.157196
 20
30.402299
 10
87.091178
 20
30.907755
 10
87.894295
 20
31.342388
 10
88.941779
 20
31.517188
 10
89.842494
 20
31.667496
 10
90.889978
 20
31.492696
 10
91.790694
 20
31.342388
 10
92.724677
 20
30.836933
 10
93.527795
 20
30.402299
 10
94.146256
 20
29.73062
 10
94.865495
 20
28.949493
 10
95.23231
 20
28.113138
 10
95.658895
 20
27.140501
 10
95.734301
 20
26.230626
 10
95.821993
 20
25.172489
 10
95.597809
 20
24.287123
 10
95.337095
 20
23.25749
 10
94.837638
 20
22.492795
 10
94.256796
 20
21.603496
  0
LWPOLYLINE
  5
2DB0
330
1D
100
AcDbEntity
  8
0
  6
ByBlock
100
AcDbPolyline
 90
       38
 70
     1
 43
0.0
 10
124.256787
 20
21.603497
 10
125.297466
 20
23.196824
 10
125.33709
 20
23.257489
 10
125.804204
 20
25.102249
 10
125.82199
 20
25.172489
 10
125.664874
 20
27.068317
 10
125.658892
 20
27.140501
 10
124.89459
 20
28.883142
 10
124.865489
 20
28.949493
 10
123.576854
 20
30.349012
 10
123.52779
 20
30.402299
 10
123.464075
 20
30.43678
 10
121.790691
 20
31.342389
 10
121.719234
 20
31.354313
 10
119.842492
 20
31.667496
 10
119.771034
 20
31.655571
 10
117.89429
 20
31.342388
 10
117.830575
 20
31.307907
 10
116.157191
 20
30.402299
 10
114.868556
 20
29.00278
 10
114.819491
 20
28.949493
 10
114.055195
 20
27.206852
 10
114.026094
 20
27.140501
 10
113.868973
 20
25.244673
 10
113.862991
 20
25.172489
 10
114.330109
 20
23.327729
 10
114.347895
 20
23.257489
 10
115.388568
 20
21.664163
 10
115.428191
 20
21.603496
 10
115.485359
 20
21.559005
 10
116.986791
 20
20.390489
 10
117.055311
 20
20.366978
 10
118.854893
 20
19.749491
 10
118.927341
 20
19.749491
 10
120.830089
 20
19.749491
 10
120.898609
 20
19.773002
 10
122.698194
 20
20.390489
 10
122.755361
 20
20.434981
  0
LWPOLYLINE
  5
2F2A
330
1D
100
AcDbEntity
  8
0
  6
ByBlock
100
AcDbPolyline
 90
       56
 70
     1
 43
0.0
 10
74.842497
 20
9.6675
 10
74.842497
 20
10.274554
 10
74.842497
 20
13.263128
 10
74.842497
 20
13.716318
 10
74.852796
 20
13.866317
 10
102.715495
 20
13.866317
 10
102.715495
 20
16.612317
 10
74.852796
 20
16.612317
 10
74.842497
 20
16.762317
 10
74.842497
 20
24.516989
 10
74.842497
 20
27.505566
 10
74.842497
 20
38.759422
 10
74.842497
 20
41.747998
 10
74.842497
 20
53.001856
 10
74.842497
 20
91.254841
 10
74.852796
 20
91.40484
 10
102.715494
 20
91.40484
 10
102.715495
 20
94.15084
 10
74.852796
 20
94.15084
 10
74.842497
 20
94.30084
 10
74.842497
 20
128.144504
 10
74.852797
 20
128.294503
 10
102.715495
 20
128.294503
 10
102.715495
 20
131.040503
 10
74.852797
 20
131.040503
 10
74.842497
 20
131.190503
 10
74.842497
 20
165.327543
 10
74.852797
 20
165.477543
 10
102.715495
 20
165.477543
 10
102.715495
 20
168.223543
 10
74.852796
 20
168.223543
 10
74.842497
 20
168.37354
 10
74.842496
 20
203.344574
 10
74.842497
 20
206.33315
 10
74.842497
 20
217.587009
 10
74.842497
 20
220.575585
 10
74.842497
 20
231.829441
 10
74.842497
 20
234.818018
 10
74.842497
 20
242.496022
 10
74.852797
 20
242.646022
 10
102.715495
 20
242.646022
 10
102.715495
 20
245.392022
 10
74.852797
 20
245.392022
 10
74.842497
 20
245.542022
 10
74.842497
 20
246.071879
 10
74.842497
 20
249.060454
 10
74.842497
 20
249.667507
 10
76.12253
 20
249.667507
 10
105.81549
 20
249.667507
 10
107.72278
 20
249.667507
 10
130.842493
 20
249.667507
 10
130.842493
 20
18.470377
 10
130.842493
 20
9.667501
 10
107.722781
 20
9.6675
 10
105.815491
 20
9.6675
 10
76.12253
 20
9.6675
  0
ENDSEC
  0
SECTION
  2
OBJECTS
  0
DICTIONARY
  5
C
330
0
100
AcDbDictionary
281
     1
  3
ACAD_DETAILVIEWSTYLE
350
C45
  3
ACAD_GROUP
350
D
  3
ACAD_IMAGE_VARS
350
B82
  3
ACAD_LAYOUT
350
1A
  3
ACAD_MATERIAL
350
B78
  3
ACAD_MLEADERSTYLE
350
B7E
  3
ACAD_MLINESTYLE
350
17
  3
ACAD_PLOTSETTINGS
350
19
  3
ACAD_PLOTSTYLENAME
350
E
  3
ACAD_SCALELIST
350
B39
  3
ACAD_SECTIONVIEWSTYLE
350
C46
  3
ACAD_TABLESTYLE
350
B7C
  3
ACAD_VISUALSTYLE
350
B5F
  3
ACDB_RECOMPOSE_DATA
350
3058
  3
AcDbVariableDictionary
350
C40
  3
APPDATA
350
B80
  0
SUN
  5
B81
330
22
100
AcDbSun
 90
        1
290
     0
 63
     7
421
 16777215
 40
1.0
291
     1
 91
  2455826
 92
 54000000
292
     0
 70
     2
 71
   256
280
     1
  0
DICTIONARY
  5
240D
330
2
100
AcDbDictionary
280
     1
281
     1
  3
ACAD_LAYERSTATES
360
240E
  0
DICTIONARY
  5
C45
102
{ACAD_REACTORS
330
C
102
}
330
C
100
AcDbDictionary
281
     1
  0
DICTIONARY
  5
D
102
{ACAD_REACTORS
330
C
102
}
330
C
100
AcDbDictionary
281
     1
  0
RASTERVARIABLES
  5
B82
102
{ACAD_REACTORS
330
C
102
}
330
C
100
AcDbRasterVariables
 90
        0
 70
     1
 71
     1
 72
     0
  0
DICTIONARY
  5
1A
102
{ACAD_REACTORS
330
C
102
}
330
C
100
AcDbDictionary
281
     1
  3
Feuille 1
350
1C
  3
Model
350
1E
  0
DICTIONARY
  5
B78
102
{ACAD_REACTORS
330
C
102
}
330
C
100
AcDbDictionary
281
     1
  3
ByBlock
350
B7A
  3
ByLayer
350
B79
  3
Global
350
B7B
  0
DICTIONARY
  5
B7E
102
{ACAD_REACTORS
330
C
102
}
330
C
100
AcDbDictionary
281
     1
  3
Standard
350
B7F
  0
DICTIONARY
  5
17
102
{ACAD_REACTORS
330
C
102
}
330
C
100
AcDbDictionary
281
     1
  3
Standard
350
18
  0
DICTIONARY
  5
19
102
{ACAD_REACTORS
330
C
102
}
330
C
100
AcDbDictionary
281
     1
  0
ACDBDICTIONARYWDFLT
  5
E
102
{ACAD_REACTORS
330
C
102
}
330
C
100
AcDbDictionary
281
     1
  3
Normal
350
F
100
AcDbDictionaryWithDefault
340
F
  0
DICTIONARY
  5
B39
102
{ACAD_REACTORS
330
C
102
}
330
C
100
AcDbDictionary
281
     1
  3
A0
350
B3A
  3
A1
350
B3B
  3
A2
350
B3C
  3
A3
350
B3D
  3
A4
350
B3E
  3
A5
350
B3F
  3
A6
350
B40
  3
A7
350
B41
  3
A8
350
B42
  3
A9
350
B43
  3
B0
350
B44
  3
B1
350
B45
  3
B2
350
B46
  3
B3
350
B47
  3
B4
350
B48
  3
B5
350
B49
  3
B6
350
B4A
  3
B7
350
B4B
  3
B8
350
B4C
  3
B9
350
B4D
  3
C0
350
B4E
  3
C1
350
B4F
  3
C2
350
B50
  3
C3
350
B51
  3
C4
350
B52
  3
C5
350
B53
  3
C6
350
B54
  3
C7
350
B55
  3
C8
350
B56
  3
C9
350
B57
  3
D0
350
B58
  3
D1
350
B59
  3
D2
350
B5A
  0
DICTIONARY
  5
C46
102
{ACAD_REACTORS
330
C
102
}
330
C
100
AcDbDictionary
281
     1
  0
DICTIONARY
  5
B7C
102
{ACAD_REACTORS
330
C
102
}
330
C
100
AcDbDictionary
281
     1
  3
Standard
350
B7D
  0
DICTIONARY
  5
B5F
102
{ACAD_REACTORS
330
C
102
}
330
C
100
AcDbDictionary
281
     1
  3
2dWireframe
350
B64
  3
Basic
350
B67
  3
Brighten
350
B6B
  3
ColorChange
350
B6F
  3
Conceptual
350
B69
  3
Dim
350
B6A
  3
EdgeColorOff
350
B72
  3
Facepattern
350
B6E
  3
Flat
350
B60
  3
FlatWithEdges
350
B61
  3
Gouraud
350
B62
  3
GouraudWithEdges
350
B63
  3
Hidden
350
B66
  3
JitterOff
350
B70
  3
Linepattern
350
B6D
  3
OverhangOff
350
B71
  3
Realistic
350
B68
  3
Shaded
350
B77
  3
Shaded with edges
350
B76
  3
Shades of Gray
350
B73
  3
Sketchy
350
B74
  3
Thicken
350
B6C
  3
Wireframe
350
B65
  3
X-Ray
350
B75
  0
XRECORD
  5
3058
102
{ACAD_REACTORS
330
C
102
}
330
C
100
AcDbXrecord
280
     1
 90
        1
330
B7D
  0
DICTIONARY
  5
C40
102
{ACAD_REACTORS
330
C
102
}
330
C
100
AcDbDictionary
281
     1
  3
CANNOSCALE
350
C41
  3
CMLEADERSTYLE
350
C43
  3
CTABLESTYLE
350
C42
  3
MSLTSCALE
350
C44
  0
DICTIONARY
  5
B80
102
{ACAD_REACTORS
330
C
102
}
330
C
100
AcDbDictionary
281
     1
  0
DICTIONARY
  5
240E
102
{ACAD_REACTORS
330
240D
102
}
330
240D
100
AcDbDictionary
281
     1
  0
LAYOUT
  5
1C
102
{ACAD_REACTORS
330
1A
102
}
330
1A
100
AcDbPlotSettings
  1

  2
none_device
  4

  6

 40
0.0
 41
0.0
 42
0.0
 43
0.0
 44
0.0
 45
0.0
 46
0.0
 47
0.0
 48
0.0
 49
0.0
140
0.0
141
0.0
142
1.0
143
1.0
 70
   688
 72
     0
 73
     0
 74
     5
  7

 75
    16
 76
     0
 77
     2
 78
   300
147
1.0
148
0.0
149
0.0
100
AcDbLayout
  1
Feuille 1
 70
     1
 71
     1
 10
0.0
 20
0.0
 11
0.0
 21
0.0
 12
0.0
 22
0.0
 32
0.0
 14
1.000000000000000E+20
 24
1.000000000000000E+20
 34
1.000000000000000E+20
 15
-1.000000000000000E+20
 25
-1.000000000000000E+20
 35
-1.000000000000000E+20
146
0.0
 13
0.0
 23
0.0
 33
0.0
 16
1.0
 26
0.0
 36
0.0
 17
0.0
 27
1.0
 37
0.0
 76
     0
330
1B
  0
LAYOUT
  5
1E
102
{ACAD_REACTORS
330
1A
102
}
330
1A
100
AcDbPlotSettings
  1

  2
none_device
  4
Letter_(8.50_x_11.00_Inches)
  6

 40
6.35
 41
6.35
 42
6.35
 43
6.35
 44
215.9
 45
279.4
 46
0.0
 47
0.0
 48
0.0
 49
0.0
140
0.0
141
0.0
142
1.0
143
1.0
 70
  1712
 72
     0
 73
     0
 74
     0
  7

 75
     0
 76
     0
 77
     2
 78
   300
147
1.0
148
0.0
149
0.0
100
AcDbLayout
  1
Model
 70
     1
 71
     0
 10
0.0
 20
0.0
 11
12.0
 21
9.0
 12
0.0
 22
0.0
 32
0.0
 14
9.6675
 24
9.66749999999999
 34
0.0
 15
326.367484
 25
249.667507
 35
2.0
146
0.0
 13
0.0
 23
0.0
 33
0.0
 16
1.0
 26
0.0
 36
0.0
 17
0.0
 27
1.0
 37
0.0
 76
     0
330
1D
331
22
  0
MATERIAL
  5
B7A
102
{ACAD_REACTORS
330
B78
102
}
330
B78
100
AcDbMaterial
  1
ByBlock
 72
     1
 94
      127
  0
MATERIAL
  5
B79
102
{ACAD_REACTORS
330
B78
102
}
330
B78
100
AcDbMaterial
  1
ByLayer
 72
     1
 94
      127
  0
MATERIAL
  5
B7B
102
{ACAD_REACTORS
330
B78
102
}
330
B78
100
AcDbMaterial
  1
Global
 72
     1
 94
      127
  0
MLEADERSTYLE
  5
B7F
102
{ACAD_REACTORS
330
B7E
102
}
330
B7E
100
AcDbMLeaderStyle
179
     2
170
     2
171
     1
172
     0
 90
        2
 40
0.0
 41
0.0
173
     1
 91
-1056964608
340
14
 92
       -2
290
     1
 42
0.09
291
     1
 43
0.36
  3
Standard
341
0
 44
0.18
300

342
11
174
     1
178
     1
175
     1
176
     0
 93
-1056964608
 45
0.18
292
     0
297
     0
 46
0.18
343
0
 94
-1056964608
 47
1.0
 49
1.0
140
1.0
293
     1
141
0.0
294
     1
177
     0
142
1.0
295
     0
296
     0
143
0.125
271
     0
272
     9
273
     9
298
     0
  0
MLINESTYLE
  5
18
102
{ACAD_REACTORS
330
17
102
}
330
17
100
AcDbMlineStyle
  2
Standard
 70
     0
  3

 62
   256
 51
90.0
 52
90.0
 71
     2
 49
0.5
 62
   256
  6
BYLAYER
 49
-0.5
 62
   256
  6
BYLAYER
  0
ACDBPLACEHOLDER
  5
F
102
{ACAD_REACTORS
330
E
102
}
330
E
  0
SCALE
  5
B3A
102
{ACAD_REACTORS
330
B39
102
}
330
B39
100
AcDbScale
 70
     0
300
1:1
140
1.0
141
1.0
290
     1
  0
SCALE
  5
B3B
102
{ACAD_REACTORS
330
B39
102
}
330
B39
100
AcDbScale
 70
     0
300
1:2
140
1.0
141
2.0
290
     0
  0
SCALE
  5
B3C
102
{ACAD_REACTORS
330
B39
102
}
330
B39
100
AcDbScale
 70
     0
300
1:4
140
1.0
141
4.0
290
     0
  0
SCALE
  5
B3D
102
{ACAD_REACTORS
330
B39
102
}
330
B39
100
AcDbScale
 70
     0
300
1:5
140
1.0
141
5.0
290
     0
  0
SCALE
  5
B3E
102
{ACAD_REACTORS
330
B39
102
}
330
B39
100
AcDbScale
 70
     0
300
1:8
140
1.0
141
8.0
290
     0
  0
SCALE
  5
B3F
102
{ACAD_REACTORS
330
B39
102
}
330
B39
100
AcDbScale
 70
     0
300
1:10
140
1.0
141
10.0
290
     0
  0
SCALE
  5
B40
102
{ACAD_REACTORS
330
B39
102
}
330
B39
100
AcDbScale
 70
     0
300
1:16
140
1.0
141
16.0
290
     0
  0
SCALE
  5
B41
102
{ACAD_REACTORS
330
B39
102
}
330
B39
100
AcDbScale
 70
     0
300
1:20
140
1.0
141
20.0
290
     0
  0
SCALE
  5
B42
102
{ACAD_REACTORS
330
B39
102
}
330
B39
100
AcDbScale
 70
     0
300
1:30
140
1.0
141
30.0
290
     0
  0
SCALE
  5
B43
102
{ACAD_REACTORS
330
B39
102
}
330
B39
100
AcDbScale
 70
     0
300
1:40
140
1.0
141
40.0
290
     0
  0
SCALE
  5
B44
102
{ACAD_REACTORS
330
B39
102
}
330
B39
100
AcDbScale
 70
     0
300
1:50
140
1.0
141
50.0
290
     0
  0
SCALE
  5
B45
102
{ACAD_REACTORS
330
B39
102
}
330
B39
100
AcDbScale
 70
     0
300
1:100
140
1.0
141
100.0
290
     0
  0
SCALE
  5
B46
102
{ACAD_REACTORS
330
B39
102
}
330
B39
100
AcDbScale
 70
     0
300
2:1
140
2.0
141
1.0
290
     0
  0
SCALE
  5
B47
102
{ACAD_REACTORS
330
B39
102
}
330
B39
100
AcDbScale
 70
     0
300
4:1
140
4.0
141
1.0
290
     0
  0
SCALE
  5
B48
102
{ACAD_REACTORS
330
B39
102
}
330
B39
100
AcDbScale
 70
     0
300
8:1
140
8.0
141
1.0
290
     0
  0
SCALE
  5
B49
102
{ACAD_REACTORS
330
B39
102
}
330
B39
100
AcDbScale
 70
     0
300
10:1
140
10.0
141
1.0
290
     0
  0
SCALE
  5
B4A
102
{ACAD_REACTORS
330
B39
102
}
330
B39
100
AcDbScale
 70
     0
300
100:1
140
100.0
141
1.0
290
     0
  0
SCALE
  5
B4B
102
{ACAD_REACTORS
330
B39
102
}
330
B39
100
AcDbScale
 70
     0
300
1/128" = 1'-0"
140
0.0078125
141
12.0
290
     0
  0
SCALE
  5
B4C
102
{ACAD_REACTORS
330
B39
102
}
330
B39
100
AcDbScale
 70
     0
300
1/64" = 1'-0"
140
0.015625
141
12.0
290
     0
  0
SCALE
  5
B4D
102
{ACAD_REACTORS
330
B39
102
}
330
B39
100
AcDbScale
 70
     0
300
1/32" = 1'-0"
140
0.03125
141
12.0
290
     0
  0
SCALE
  5
B4E
102
{ACAD_REACTORS
330
B39
102
}
330
B39
100
AcDbScale
 70
     0
300
1/16" = 1'-0"
140
0.0625
141
12.0
290
     0
  0
SCALE
  5
B4F
102
{ACAD_REACTORS
330
B39
102
}
330
B39
100
AcDbScale
 70
     0
300
3/32" = 1'-0"
140
0.09375
141
12.0
290
     0
  0
SCALE
  5
B50
102
{ACAD_REACTORS
330
B39
102
}
330
B39
100
AcDbScale
 70
     0
300
1/8" = 1'-0"
140
0.125
141
12.0
290
     0
  0
SCALE
  5
B51
102
{ACAD_REACTORS
330
B39
102
}
330
B39
100
AcDbScale
 70
     0
300
3/16" = 1'-0"
140
0.1875
141
12.0
290
     0
  0
SCALE
  5
B52
102
{ACAD_REACTORS
330
B39
102
}
330
B39
100
AcDbScale
 70
     0
300
1/4" = 1'-0"
140
0.25
141
12.0
290
     0
  0
SCALE
  5
B53
102
{ACAD_REACTORS
330
B39
102
}
330
B39
100
AcDbScale
 70
     0
300
3/8" = 1'-0"
140
0.375
141
12.0
290
     0
  0
SCALE
  5
B54
102
{ACAD_REACTORS
330
B39
102
}
330
B39
100
AcDbScale
 70
     0
300
1/2" = 1'-0"
140
0.5
141
12.0
290
     0
  0
SCALE
  5
B55
102
{ACAD_REACTORS
330
B39
102
}
330
B39
100
AcDbScale
 70
     0
300
3/4" = 1'-0"
140
0.75
141
12.0
290
     0
  0
SCALE
  5
B56
102
{ACAD_REACTORS
330
B39
102
}
330
B39
100
AcDbScale
 70
     0
300
1" = 1'-0"
140
1.0
141
12.0
290
     0
  0
SCALE
  5
B57
102
{ACAD_REACTORS
330
B39
102
}
330
B39
100
AcDbScale
 70
     0
300
1-1/2" = 1'-0"
140
1.5
141
12.0
290
     0
  0
SCALE
  5
B58
102
{ACAD_REACTORS
330
B39
102
}
330
B39
100
AcDbScale
 70
     0
300
3" = 1'-0"
140
3.0
141
12.0
290
     0
  0
SCALE
  5
B59
102
{ACAD_REACTORS
330
B39
102
}
330
B39
100
AcDbScale
 70
     0
300
6" = 1'-0"
140
6.0
141
12.0
290
     0
  0
SCALE
  5
B5A
102
{ACAD_REACTORS
330
B39
102
}
330
B39
100
AcDbScale
 70
     0
300
1'-0" = 1'-0"
140
12.0
141
12.0
290
     0
  0
TABLESTYLE
  5
B7D
102
{ACAD_REACTORS
330
B7C
102
}
102
{ACAD_XDICTIONARY
360
3056
102
}
330
B7C
100
AcDbTableStyle
  3
Standard
 70
     0
 71
     0
 40
0.06
 41
0.06
280
     0
281
     0
  7
Standard
140
0.18
170
     2
 62
     0
 63
   257
283
     0
 90
        4
 91
        0
  1

274
    -2
284
     1
 64
     0
275
    -2
285
     1
 65
     0
276
    -2
286
     1
 66
     0
277
    -2
287
     1
 67
     0
278
    -2
288
     1
 68
     0
279
    -2
289
     1
 69
     0
  7
Standard
140
0.25
170
     5
 62
     0
 63
   257
283
     0
 90
        4
 91
        0
  1

274
    -2
284
     1
 64
     0
275
    -2
285
     1
 65
     0
276
    -2
286
     1
 66
     0
277
    -2
287
     1
 67
     0
278
    -2
288
     1
 68
     0
279
    -2
289
     1
 69
     0
  7
Standard
140
0.18
170
     5
 62
     0
 63
   257
283
     0
 90
        4
 91
        0
  1

274
    -2
284
     1
 64
     0
275
    -2
285
     1
 65
     0
276
    -2
286
     1
 66
     0
277
    -2
287
     1
 67
     0
278
    -2
288
     1
 68
     0
279
    -2
289
     1
 69
     0
  0
VISUALSTYLE
  5
B64
102
{ACAD_REACTORS
330
B5F
102
}
330
B5F
100
AcDbVisualStyle
  2
2dWireframe
 70
     4
177
     3
291
     0
 70
    58
 90
        0
176
     1
 90
        2
176
     1
 90
        0
176
     1
 90
        0
176
     1
 40
0.6
176
     1
 40
30.0
176
     1
 62
     7
420
 16777215
176
     1
 90
        1
176
     1
 90
        4
176
     1
 62
     7
176
     1
 62
   257
176
     1
 90
        1
176
     1
 90
        1
176
     1
 40
1.0
176
     1
 90
        0
176
     1
 62
   257
176
     1
 40
1.0
176
     1
 90
        1
176
     1
 90
        6
176
     1
 90
        2
176
     1
 62
     7
176
     1
 90
        5
176
     1
 90
        0
176
     1
 90
        0
176
     1
290
     0
176
     1
 90
        1
176
     1
 40
0.0
176
     1
 90
        0
176
     1
290
     1
176
     1
290
     1
176
     1
290
     0
176
     1
290
     0
176
     1
290
     0
176
     1
290
     0
176
     1
290
     0
176
     1
290
     0
176
     1
290
     0
176
     1
 90
       50
176
     1
 40
0.0
176
     1
 40
1.0
176
     1
 90
        0
176
     1
 62
    18
420
        0
176
     1
 90
       50
176
     1
 90
        3
176
     1
 62
     5
420
      255
176
     1
290
     0
176
     1
 90
       50
176
     1
 90
       50
176
     1
 90
       50
176
     1
290
     0
176
     1
 90
       50
176
     1
 62
   256
176
     0
 40
1.0
176
     0
 90
        2
176
     1
  1
strokes_ogs.tif
176
     1
290
     0
176
     1
 40
1.0
176
     1
 40
1.0
176
     1
  0
VISUALSTYLE
  5
B67
102
{ACAD_REACTORS
330
B5F
102
}
330
B5F
100
AcDbVisualStyle
  2
Basic
 70
     7
177
     3
291
     1
 70
    58
 90
        1
176
     1
 90
        0
176
     1
 90
        1
176
     1
 90
        0
176
     1
 40
0.6
176
     1
 40
30.0
176
     1
 62
     7
420
 16777215
176
     1
 90
        0
176
     1
 90
        4
176
     1
 62
     7
176
     1
 62
   257
176
     1
 90
        1
176
     1
 90
        1
176
     1
 40
1.0
176
     1
 90
        8
176
     1
 62
     7
176
     1
 40
1.0
176
     1
 90
        1
176
     1
 90
        6
176
     1
 90
        2
176
     1
 62
     7
176
     1
 90
        5
176
     1
 90
        0
176
     1
 90
        0
176
     1
290
     0
176
     1
 90
        1
176
     1
 40
0.0
176
     1
 90
        0
176
     1
290
     0
176
     1
290
     1
176
     1
290
     1
176
     1
290
     0
176
     1
290
     0
176
     1
290
     0
176
     1
290
     0
176
     1
290
     0
176
     1
290
     0
176
     1
 90
       50
176
     1
 40
0.0
176
     1
 40
1.0
176
     1
 90
        0
176
     1
 62
    18
420
        0
176
     1
 90
       50
176
     1
 90
        3
176
     1
 62
     5
420
      255
176
     1
290
     0
176
     1
 90
       50
176
     1
 90
       50
176
     1
 90
       50
176
     1
290
     0
176
     1
 90
       50
176
     1
 62
   256
176
     0
 40
1.0
176
     0
 90
        2
176
     1
  1
strokes_ogs.tif
176
     1
290
     0
176
     1
 40
1.0
176
     1
 40
1.0
176
     1
  0
VISUALSTYLE
  5
B6B
102
{ACAD_REACTORS
330
B5F
102
}
330
B5F
100
AcDbVisualStyle
  2
Brighten
 70
    12
177
     3
291
     1
 70
    58
 90
        2
176
     1
 90
        2
176
     1
 90
        0
176
     1
 90
        0
176
     1
 40
0.6
176
     1
 40
30.0
176
     1
 62
     7
420
 16777215
176
     1
 90
        1
176
     1
 90
        4
176
     1
 62
     7
176
     1
 62
   257
176
     1
 90
        1
176
     1
 90
        1
176
     1
 40
1.0
176
     1
 90
        8
176
     1
 62
     7
176
     1
 40
1.0
176
     1
 90
        1
176
     1
 90
        6
176
     1
 90
        2
176
     1
 62
     7
176
     1
 90
        5
176
     1
 90
        0
176
     1
 90
        0
176
     1
290
     0
176
     1
 90
        1
176
     1
 40
50.0
176
     1
 90
        0
176
     1
290
     0
176
     1
290
     1
176
     1
290
     1
176
     1
290
     0
176
     1
290
     0
176
     1
290
     0
176
     1
290
     0
176
     1
290
     0
176
     1
290
     0
176
     1
 90
       50
176
     1
 40
0.0
176
     1
 40
1.0
176
     1
 90
        0
176
     1
 62
    18
420
        0
176
     1
 90
       50
176
     1
 90
        3
176
     1
 62
     5
420
      255
176
     1
290
     0
176
     1
 90
       50
176
     1
 90
       50
176
     1
 90
       50
176
     1
290
     0
176
     1
 90
       50
176
     1
 62
   256
176
     0
 40
1.0
176
     0
 90
        2
176
     1
  1
strokes_ogs.tif
176
     1
290
     0
176
     1
 40
1.0
176
     1
 40
1.0
176
     1
  0
VISUALSTYLE
  5
B6F
102
{ACAD_REACTORS
330
B5F
102
}
330
B5F
100
AcDbVisualStyle
  2
ColorChange
 70
    16
177
     3
291
     1
 70
    58
 90
        2
176
     1
 90
        2
176
     1
 90
        3
176
     1
 90
        0
176
     1
 40
0.6
176
     1
 40
30.0
176
     1
 62
     8
420
  8421504
176
     1
 90
        1
176
     1
 90
        4
176
     1
 62
     7
176
     1
 62
   257
176
     1
 90
        1
176
     1
 90
        1
176
     1
 40
1.0
176
     1
 90
        8
176
     1
 62
     8
420
  8421504
176
     1
 40
1.0
176
     1
 90
        1
176
     1
 90
        6
176
     1
 90
        2
176
     1
 62
     7
176
     1
 90
        5
176
     1
 90
        0
176
     1
 90
        0
176
     1
290
     0
176
     1
 90
        1
176
     1
 40
0.0
176
     1
 90
        0
176
     1
290
     0
176
     1
290
     1
176
     1
290
     1
176
     1
290
     0
176
     1
290
     0
176
     1
290
     0
176
     1
290
     0
176
     1
290
     0
176
     1
290
     0
176
     1
 90
       50
176
     1
 40
0.0
176
     1
 40
1.0
176
     1
 90
        0
176
     1
 62
    18
420
        0
176
     1
 90
       50
176
     1
 90
        3
176
     1
 62
     5
420
      255
176
     1
290
     0
176
     1
 90
       50
176
     1
 90
       50
176
     1
 90
       50
176
     1
290
     0
176
     1
 90
       50
176
     1
 62
   256
176
     0
 40
1.0
176
     0
 90
        2
176
     1
  1
strokes_ogs.tif
176
     1
290
     0
176
     1
 40
1.0
176
     1
 40
1.0
176
     1
  0
VISUALSTYLE
  5
B69
102
{ACAD_REACTORS
330
B5F
102
}
330
B5F
100
AcDbVisualStyle
  2
Conceptual
 70
     9
177
     3
291
     0
 70
    58
 90
        3
176
     1
 90
        2
176
     1
 90
        0
176
     1
 90
        0
176
     1
 40
0.6
176
     1
 40
30.0
176
     1
 62
     7
420
 16777215
176
     1
 90
        2
176
     1
 90
        2
176
     1
 62
     7
176
     1
 62
   257
176
     1
 90
        1
176
     1
 90
        1
176
     1
 40
179.0
176
     1
 90
        8
176
     1
 62
     7
176
     1
 40
1.0
176
     1
 90
        1
176
     1
 90
        6
176
     1
 90
        2
176
     1
 62
     7
176
     1
 90
        3
176
     1
 90
        0
176
     1
 90
        0
176
     1
290
     0
176
     1
 90
        1
176
     1
 40
0.0
176
     1
 90
        0
176
     1
290
     0
176
     1
290
     1
176
     1
290
     1
176
     1
290
     0
176
     1
290
     0
176
     1
290
     0
176
     1
290
     0
176
     1
290
     0
176
     1
290
     0
176
     1
 90
       50
176
     1
 40
0.0
176
     1
 40
1.0
176
     1
 90
        0
176
     1
 62
    18
420
        0
176
     1
 90
       50
176
     1
 90
        3
176
     1
 62
     5
420
      255
176
     1
290
     0
176
     1
 90
       50
176
     1
 90
       50
176
     1
 90
       50
176
     1
290
     0
176
     1
 90
       50
176
     1
 62
   256
176
     0
 40
1.0
176
     0
 90
        2
176
     1
  1
strokes_ogs.tif
176
     1
290
     0
176
     1
 40
1.0
176
     1
 40
1.0
176
     1
  0
VISUALSTYLE
  5
B6A
102
{ACAD_REACTORS
330
B5F
102
}
330
B5F
100
AcDbVisualStyle
  2
Dim
 70
    11
177
     3
291
     1
 70
    58
 90
        2
176
     1
 90
        2
176
     1
 90
        0
176
     1
 90
        0
176
     1
 40
0.6
176
     1
 40
30.0
176
     1
 62
     7
420
 16777215
176
     1
 90
        1
176
     1
 90
        4
176
     1
 62
     7
176
     1
 62
   257
176
     1
 90
        1
176
     1
 90
        1
176
     1
 40
1.0
176
     1
 90
        8
176
     1
 62
     7
176
     1
 40
1.0
176
     1
 90
        1
176
     1
 90
        6
176
     1
 90
        2
176
     1
 62
     7
176
     1
 90
        5
176
     1
 90
        0
176
     1
 90
        0
176
     1
290
     0
176
     1
 90
        1
176
     1
 40
-50.0
176
     1
 90
        0
176
     1
290
     0
176
     1
290
     1
176
     1
290
     1
176
     1
290
     0
176
     1
290
     0
176
     1
290
     0
176
     1
290
     0
176
     1
290
     0
176
     1
290
     0
176
     1
 90
       50
176
     1
 40
0.0
176
     1
 40
1.0
176
     1
 90
        0
176
     1
 62
    18
420
        0
176
     1
 90
       50
176
     1
 90
        3
176
     1
 62
     5
420
      255
176
     1
290
     0
176
     1
 90
       50
176
     1
 90
       50
176
     1
 90
       50
176
     1
290
     0
176
     1
 90
       50
176
     1
 62
   256
176
     0
 40
1.0
176
     0
 90
        2
176
     1
  1
strokes_ogs.tif
176
     1
290
     0
176
     1
 40
1.0
176
     1
 40
1.0
176
     1
  0
VISUALSTYLE
  5
B72
102
{ACAD_REACTORS
330
B5F
102
}
330
B5F
100
AcDbVisualStyle
  2
EdgeColorOff
 70
    22
177
     3
291
     1
 70
    58
 90
        2
176
     0
 90
        2
176
     0
 90
        0
176
     0
 90
        0
176
     0
 40
0.6
176
     0
 40
30.0
176
     0
 62
     7
420
 16777215
176
     0
 90
        1
176
     0
 90
        4
176
     0
 62
     7
176
     0
 62
   257
176
     0
 90
        1
176
     0
 90
        1
176
     0
 40
1.0
176
     0
 90
        8
176
     2
 62
     7
176
     0
 40
1.0
176
     0
 90
        1
176
     0
 90
        6
176
     0
 90
        2
176
     0
 62
     7
176
     0
 90
        5
176
     0
 90
        0
176
     0
 90
        0
176
     0
290
     0
176
     0
 90
        1
176
     0
 40
0.0
176
     0
 90
        0
176
     0
290
     0
176
     0
290
     1
176
     0
290
     1
176
     0
290
     0
176
     0
290
     0
176
     0
290
     0
176
     0
290
     0
176
     0
290
     0
176
     0
290
     0
176
     0
 90
       50
176
     0
 40
0.0
176
     0
 40
1.0
176
     0
 90
        0
176
     0
 62
    18
420
        0
176
     0
 90
       50
176
     0
 90
        3
176
     0
 62
     5
420
      255
176
     0
290
     0
176
     0
 90
       50
176
     0
 90
       50
176
     0
 90
       50
176
     0
290
     0
176
     0
 90
       50
176
     0
 62
   256
176
     0
 40
1.0
176
     0
 90
        2
176
     0
  1
strokes_ogs.tif
176
     0
290
     0
176
     0
 40
1.0
176
     0
 40
1.0
176
     0
  0
VISUALSTYLE
  5
B6E
102
{ACAD_REACTORS
330
B5F
102
}
330
B5F
100
AcDbVisualStyle
  2
Facepattern
 70
    15
177
     3
291
     1
 70
    58
 90
        2
176
     1
 90
        2
176
     1
 90
        0
176
     1
 90
        0
176
     1
 40
0.6
176
     1
 40
30.0
176
     1
 62
     7
420
 16777215
176
     1
 90
        1
176
     1
 90
        4
176
     1
 62
     7
176
     1
 62
   257
176
     1
 90
        1
176
     1
 90
        1
176
     1
 40
1.0
176
     1
 90
        8
176
     1
 62
     7
176
     1
 40
1.0
176
     1
 90
        1
176
     1
 90
        6
176
     1
 90
        2
176
     1
 62
     7
176
     1
 90
        5
176
     1
 90
        0
176
     1
 90
        0
176
     1
290
     0
176
     1
 90
        1
176
     1
 40
0.0
176
     1
 90
        0
176
     1
290
     0
176
     1
290
     1
176
     1
290
     1
176
     1
290
     0
176
     1
290
     0
176
     1
290
     0
176
     1
290
     0
176
     1
290
     0
176
     1
290
     0
176
     1
 90
       50
176
     1
 40
0.0
176
     1
 40
1.0
176
     1
 90
        0
176
     1
 62
    18
420
        0
176
     1
 90
       50
176
     1
 90
        3
176
     1
 62
     5
420
      255
176
     1
290
     0
176
     1
 90
       50
176
     1
 90
       50
176
     1
 90
       50
176
     1
290
     0
176
     1
 90
       50
176
     1
 62
   256
176
     0
 40
1.0
176
     0
 90
        2
176
     1
  1
strokes_ogs.tif
176
     1
290
     0
176
     1
 40
1.0
176
     1
 40
1.0
176
     1
  0
VISUALSTYLE
  5
B60
102
{ACAD_REACTORS
330
B5F
102
}
330
B5F
100
AcDbVisualStyle
  2
Flat
 70
     0
177
     3
291
     1
 70
    58
 90
        2
176
     1
 90
        1
176
     1
 90
        1
176
     1
 90
        2
176
     1
 40
0.6
176
     1
 40
30.0
176
     1
 62
     7
420
 16777215
176
     1
 90
        0
176
     1
 90
        0
176
     1
 62
     7
176
     1
 62
   257
176
     1
 90
        1
176
     1
 90
        1
176
     1
 40
1.0
176
     1
 90
        8
176
     1
 62
     7
176
     1
 40
1.0
176
     1
 90
        1
176
     1
 90
        6
176
     1
 90
        2
176
     1
 62
     7
176
     1
 90
        5
176
     1
 90
        0
176
     1
 90
        0
176
     1
290
     0
176
     1
 90
       13
176
     1
 40
0.0
176
     1
 90
        0
176
     1
290
     0
176
     1
290
     1
176
     1
290
     1
176
     1
290
     0
176
     1
290
     0
176
     1
290
     0
176
     1
290
     0
176
     1
290
     0
176
     1
290
     0
176
     1
 90
       50
176
     1
 40
0.0
176
     1
 40
1.0
176
     1
 90
        0
176
     1
 62
    18
420
        0
176
     1
 90
       50
176
     1
 90
        3
176
     1
 62
     5
420
      255
176
     1
290
     0
176
     1
 90
       50
176
     1
 90
       50
176
     1
 90
       50
176
     1
290
     0
176
     1
 90
       50
176
     1
 62
   256
176
     0
 40
1.0
176
     0
 90
        2
176
     1
  1
strokes_ogs.tif
176
     1
290
     0
176
     1
 40
1.0
176
     1
 40
1.0
176
     1
  0
VISUALSTYLE
  5
B61
102
{ACAD_REACTORS
330
B5F
102
}
330
B5F
100
AcDbVisualStyle
  2
FlatWithEdges
 70
     1
177
     3
291
     1
 70
    58
 90
        2
176
     1
 90
        1
176
     1
 90
        1
176
     1
 90
        2
176
     1
 40
0.6
176
     1
 40
30.0
176
     1
 62
     7
420
 16777215
176
     1
 90
        1
176
     1
 90
        0
176
     1
 62
     7
176
     1
 62
   257
176
     1
 90
        1
176
     1
 90
        1
176
     1
 40
1.0
176
     1
 90
        0
176
     1
 62
   257
176
     1
 40
1.0
176
     1
 90
        1
176
     1
 90
        6
176
     1
 90
        2
176
     1
 62
     7
176
     1
 90
        5
176
     1
 90
        0
176
     1
 90
        0
176
     1
290
     0
176
     1
 90
       13
176
     1
 40
0.0
176
     1
 90
        0
176
     1
290
     0
176
     1
290
     1
176
     1
290
     1
176
     1
290
     0
176
     1
290
     0
176
     1
290
     0
176
     1
290
     0
176
     1
290
     0
176
     1
290
     0
176
     1
 90
       50
176
     1
 40
0.0
176
     1
 40
1.0
176
     1
 90
        0
176
     1
 62
    18
420
        0
176
     1
 90
       50
176
     1
 90
        3
176
     1
 62
     5
420
      255
176
     1
290
     0
176
     1
 90
       50
176
     1
 90
       50
176
     1
 90
       50
176
     1
290
     0
176
     1
 90
       50
176
     1
 62
   256
176
     0
 40
1.0
176
     0
 90
        2
176
     1
  1
strokes_ogs.tif
176
     1
290
     0
176
     1
 40
1.0
176
     1
 40
1.0
176
     1
  0
VISUALSTYLE
  5
B62
102
{ACAD_REACTORS
330
B5F
102
}
330
B5F
100
AcDbVisualStyle
  2
Gouraud
 70
     2
177
     3
291
     1
 70
    58
 90
        2
176
     1
 90
        2
176
     1
 90
        1
176
     1
 90
        2
176
     1
 40
0.6
176
     1
 40
30.0
176
     1
 62
     7
420
 16777215
176
     1
 90
        0
176
     1
 90
        0
176
     1
 62
     7
176
     1
 62
   257
176
     1
 90
        1
176
     1
 90
        1
176
     1
 40
1.0
176
     1
 90
        0
176
     1
 62
     7
176
     1
 40
1.0
176
     1
 90
        1
176
     1
 90
        6
176
     1
 90
        2
176
     1
 62
     7
176
     1
 90
        5
176
     1
 90
        0
176
     1
 90
        0
176
     1
290
     0
176
     1
 90
       13
176
     1
 40
0.0
176
     1
 90
        0
176
     1
290
     0
176
     1
290
     1
176
     1
290
     1
176
     1
290
     0
176
     1
290
     0
176
     1
290
     0
176
     1
290
     0
176
     1
290
     0
176
     1
290
     0
176
     1
 90
       50
176
     1
 40
0.0
176
     1
 40
1.0
176
     1
 90
        0
176
     1
 62
    18
420
        0
176
     1
 90
       50
176
     1
 90
        3
176
     1
 62
     5
420
      255
176
     1
290
     0
176
     1
 90
       50
176
     1
 90
       50
176
     1
 90
       50
176
     1
290
     0
176
     1
 90
       50
176
     1
 62
   256
176
     0
 40
1.0
176
     0
 90
        2
176
     1
  1
strokes_ogs.tif
176
     1
290
     0
176
     1
 40
1.0
176
     1
 40
1.0
176
     1
  0
VISUALSTYLE
  5
B63
102
{ACAD_REACTORS
330
B5F
102
}
330
B5F
100
AcDbVisualStyle
  2
GouraudWithEdges
 70
     3
177
     3
291
     1
 70
    58
 90
        2
176
     1
 90
        2
176
     1
 90
        1
176
     1
 90
        2
176
     1
 40
0.6
176
     1
 40
30.0
176
     1
 62
     7
420
 16777215
176
     1
 90
        1
176
     1
 90
        0
176
     1
 62
     7
176
     1
 62
   257
176
     1
 90
        1
176
     1
 90
        1
176
     1
 40
1.0
176
     1
 90
        0
176
     1
 62
   257
176
     1
 40
1.0
176
     1
 90
        1
176
     1
 90
        6
176
     1
 90
        2
176
     1
 62
     7
176
     1
 90
        5
176
     1
 90
        0
176
     1
 90
        0
176
     1
290
     0
176
     1
 90
       13
176
     1
 40
0.0
176
     1
 90
        0
176
     1
290
     0
176
     1
290
     1
176
     1
290
     1
176
     1
290
     0
176
     1
290
     0
176
     1
290
     0
176
     1
290
     0
176
     1
290
     0
176
     1
290
     0
176
     1
 90
       50
176
     1
 40
0.0
176
     1
 40
1.0
176
     1
 90
        0
176
     1
 62
    18
420
        0
176
     1
 90
       50
176
     1
 90
        3
176
     1
 62
     5
420
      255
176
     1
290
     0
176
     1
 90
       50
176
     1
 90
       50
176
     1
 90
       50
176
     1
290
     0
176
     1
 90
       50
176
     1
 62
   256
176
     0
 40
1.0
176
     0
 90
        2
176
     1
  1
strokes_ogs.tif
176
     1
290
     0
176
     1
 40
1.0
176
     1
 40
1.0
176
     1
  0
VISUALSTYLE
  5
B66
102
{ACAD_REACTORS
330
B5F
102
}
330
B5F
100
AcDbVisualStyle
  2
Hidden
 70
     6
177
     3
291
     0
 70
    58
 90
        1
176
     1
 90
        2
176
     1
 90
        2
176
     1
 90
        0
176
     1
 40
0.6
176
     1
 40
30.0
176
     1
 62
     7
420
 16777215
176
     1
 90
        2
176
     1
 90
        2
176
     1
 62
     7
176
     1
 62
   257
176
     1
 90
        2
176
     1
 90
        1
176
     1
 40
40.0
176
     1
 90
        0
176
     1
 62
   257
176
     1
 40
1.0
176
     1
 90
        1
176
     1
 90
        6
176
     1
 90
        2
176
     1
 62
     7
176
     1
 90
        3
176
     1
 90
        0
176
     1
 90
        0
176
     1
290
     0
176
     1
 90
        1
176
     1
 40
0.0
176
     1
 90
        0
176
     1
290
     0
176
     1
290
     1
176
     1
290
     1
176
     1
290
     0
176
     1
290
     0
176
     1
290
     0
176
     1
290
     0
176
     1
290
     0
176
     1
290
     0
176
     1
 90
       50
176
     1
 40
0.0
176
     1
 40
1.0
176
     1
 90
        0
176
     1
 62
    18
420
        0
176
     1
 90
       50
176
     1
 90
        3
176
     1
 62
     5
420
      255
176
     1
290
     0
176
     1
 90
       50
176
     1
 90
       50
176
     1
 90
       50
176
     1
290
     0
176
     1
 90
       50
176
     1
 62
   256
176
     0
 40
1.0
176
     0
 90
        2
176
     1
  1
strokes_ogs.tif
176
     1
290
     0
176
     1
 40
1.0
176
     1
 40
1.0
176
     1
  0
VISUALSTYLE
  5
B70
102
{ACAD_REACTORS
330
B5F
102
}
330
B5F
100
AcDbVisualStyle
  2
JitterOff
 70
    20
177
     3
291
     1
 70
    58
 90
        2
176
     0
 90
        2
176
     0
 90
        0
176
     0
 90
        0
176
     0
 40
0.6
176
     0
 40
30.0
176
     0
 62
     7
420
 16777215
176
     0
 90
        1
176
     0
 90
        4
176
     0
 62
     7
176
     0
 62
   257
176
     0
 90
        1
176
     0
 90
        1
176
     0
 40
1.0
176
     0
 90
       10
176
     2
 62
     7
176
     0
 40
1.0
176
     0
 90
        1
176
     0
 90
        6
176
     0
 90
        2
176
     0
 62
     7
176
     0
 90
        5
176
     0
 90
        0
176
     0
 90
        0
176
     0
290
     0
176
     0
 90
        1
176
     0
 40
0.0
176
     0
 90
        0
176
     0
290
     0
176
     0
290
     1
176
     0
290
     1
176
     0
290
     0
176
     0
290
     0
176
     0
290
     0
176
     0
290
     0
176
     0
290
     0
176
     0
290
     0
176
     0
 90
       50
176
     0
 40
0.0
176
     0
 40
1.0
176
     0
 90
        0
176
     0
 62
    18
420
        0
176
     0
 90
       50
176
     0
 90
        3
176
     0
 62
     5
420
      255
176
     0
290
     0
176
     0
 90
       50
176
     0
 90
       50
176
     0
 90
       50
176
     0
290
     0
176
     0
 90
       50
176
     0
 62
   256
176
     0
 40
1.0
176
     0
 90
        2
176
     0
  1
strokes_ogs.tif
176
     0
290
     0
176
     0
 40
1.0
176
     0
 40
1.0
176
     0
  0
VISUALSTYLE
  5
B6D
102
{ACAD_REACTORS
330
B5F
102
}
330
B5F
100
AcDbVisualStyle
  2
Linepattern
 70
    14
177
     3
291
     1
 70
    58
 90
        2
176
     1
 90
        2
176
     1
 90
        0
176
     1
 90
        0
176
     1
 40
0.6
176
     1
 40
30.0
176
     1
 62
     7
420
 16777215
176
     1
 90
        1
176
     1
 90
        4
176
     1
 62
     7
176
     1
 62
   257
176
     1
 90
        7
176
     1
 90
        7
176
     1
 40
1.0
176
     1
 90
        8
176
     1
 62
     7
176
     1
 40
1.0
176
     1
 90
        1
176
     1
 90
        6
176
     1
 90
        2
176
     1
 62
     7
176
     1
 90
        5
176
     1
 90
        0
176
     1
 90
        0
176
     1
290
     0
176
     1
 90
        1
176
     1
 40
0.0
176
     1
 90
        0
176
     1
290
     0
176
     1
290
     1
176
     1
290
     1
176
     1
290
     0
176
     1
290
     0
176
     1
290
     0
176
     1
290
     0
176
     1
290
     0
176
     1
290
     0
176
     1
 90
       50
176
     1
 40
0.0
176
     1
 40
1.0
176
     1
 90
        0
176
     1
 62
    18
420
        0
176
     1
 90
       50
176
     1
 90
        3
176
     1
 62
     5
420
      255
176
     1
290
     0
176
     1
 90
       50
176
     1
 90
       50
176
     1
 90
       50
176
     1
290
     0
176
     1
 90
       50
176
     1
 62
   256
176
     0
 40
1.0
176
     0
 90
        2
176
     1
  1
strokes_ogs.tif
176
     1
290
     0
176
     1
 40
1.0
176
     1
 40
1.0
176
     1
  0
VISUALSTYLE
  5
B71
102
{ACAD_REACTORS
330
B5F
102
}
330
B5F
100
AcDbVisualStyle
  2
OverhangOff
 70
    21
177
     3
291
     1
 70
    58
 90
        2
176
     0
 90
        2
176
     0
 90
        0
176
     0
 90
        0
176
     0
 40
0.6
176
     0
 40
30.0
176
     0
 62
     7
420
 16777215
176
     0
 90
        1
176
     0
 90
        4
176
     0
 62
     7
176
     0
 62
   257
176
     0
 90
        1
176
     0
 90
        1
176
     0
 40
1.0
176
     0
 90
        9
176
     2
 62
     7
176
     0
 40
1.0
176
     0
 90
        1
176
     0
 90
        6
176
     0
 90
        2
176
     0
 62
     7
176
     0
 90
        5
176
     0
 90
        0
176
     0
 90
        0
176
     0
290
     0
176
     0
 90
        1
176
     0
 40
0.0
176
     0
 90
        0
176
     0
290
     0
176
     0
290
     1
176
     0
290
     1
176
     0
290
     0
176
     0
290
     0
176
     0
290
     0
176
     0
290
     0
176
     0
290
     0
176
     0
290
     0
176
     0
 90
       50
176
     0
 40
0.0
176
     0
 40
1.0
176
     0
 90
        0
176
     0
 62
    18
420
        0
176
     0
 90
       50
176
     0
 90
        3
176
     0
 62
     5
420
      255
176
     0
290
     0
176
     0
 90
       50
176
     0
 90
       50
176
     0
 90
       50
176
     0
290
     0
176
     0
 90
       50
176
     0
 62
   256
176
     0
 40
1.0
176
     0
 90
        2
176
     0
  1
strokes_ogs.tif
176
     0
290
     0
176
     0
 40
1.0
176
     0
 40
1.0
176
     0
  0
VISUALSTYLE
  5
B68
102
{ACAD_REACTORS
330
B5F
102
}
330
B5F
100
AcDbVisualStyle
  2
Realistic
 70
     8
177
     3
291
     0
 70
    58
 90
        2
176
     1
 90
        3
176
     1
 90
        0
176
     1
 90
        2
176
     1
 40
0.6
176
     1
 40
30.0
176
     1
 62
     7
420
 16777215
176
     1
 90
        0
176
     1
 90
        0
176
     1
 62
     7
176
     1
 62
   257
176
     1
 90
        1
176
     1
 90
        1
176
     1
 40
1.0
176
     1
 90
        8
176
     1
 62
   257
176
     1
 40
1.0
176
     1
 90
        1
176
     1
 90
        6
176
     1
 90
        2
176
     1
 62
     7
176
     1
 90
        3
176
     1
 90
        0
176
     1
 90
        0
176
     1
290
     0
176
     1
 90
       13
176
     1
 40
0.0
176
     1
 90
        0
176
     1
290
     0
176
     1
290
     1
176
     1
290
     1
176
     1
290
     0
176
     1
290
     0
176
     1
290
     0
176
     1
290
     0
176
     1
290
     0
176
     1
290
     0
176
     1
 90
       50
176
     1
 40
0.0
176
     1
 40
1.0
176
     1
 90
        0
176
     1
 62
    18
420
        0
176
     1
 90
       50
176
     1
 90
        3
176
     1
 62
     5
420
      255
176
     1
290
     0
176
     1
 90
       50
176
     1
 90
       50
176
     1
 90
       50
176
     1
290
     0
176
     1
 90
       50
176
     1
 62
   256
176
     0
 40
1.0
176
     0
 90
        2
176
     1
  1
strokes_ogs.tif
176
     1
290
     0
176
     1
 40
1.0
176
     1
 40
1.0
176
     1
  0
VISUALSTYLE
  5
B77
102
{ACAD_REACTORS
330
B5F
102
}
330
B5F
100
AcDbVisualStyle
  2
Shaded
 70
    27
177
     3
291
     0
 70
    58
 90
        2
176
     1
 90
        2
176
     1
 90
        1
176
     1
 90
        2
176
     1
 40
0.6
176
     1
 40
30.0
176
     1
 62
     7
420
 16777215
176
     1
 90
        0
176
     1
 90
        4
176
     1
 62
     7
176
     1
 62
   257
176
     1
 90
        1
176
     1
 90
        1
176
     1
 40
1.0
176
     1
 90
        8
176
     1
 62
   257
176
     1
 40
1.0
176
     1
 90
        1
176
     1
 90
        6
176
     1
 90
        2
176
     1
 62
     8
420
  7895160
176
     1
 90
        3
176
     1
 90
        0
176
     1
 90
        0
176
     1
290
     0
176
     1
 90
        5
176
     1
 40
0.0
176
     1
 90
        0
176
     1
290
     0
176
     1
290
     1
176
     1
290
     1
176
     1
290
     0
176
     1
290
     0
176
     1
290
     0
176
     1
290
     0
176
     1
290
     0
176
     1
290
     0
176
     1
 90
       50
176
     1
 40
0.0
176
     1
 40
1.0
176
     1
 90
        0
176
     1
 62
    18
420
        0
176
     1
 90
       50
176
     1
 90
        3
176
     1
 62
     5
420
      255
176
     1
290
     0
176
     1
 90
       50
176
     1
 90
       50
176
     1
 90
       50
176
     1
290
     0
176
     1
 90
       50
176
     1
 62
   256
176
     0
 40
1.0
176
     0
 90
        2
176
     1
  1
strokes_ogs.tif
176
     1
290
     0
176
     1
 40
1.0
176
     1
 40
1.0
176
     1
  0
VISUALSTYLE
  5
B76
102
{ACAD_REACTORS
330
B5F
102
}
330
B5F
100
AcDbVisualStyle
  2
Shaded with edges
 70
    26
177
     3
291
     0
 70
    58
 90
        2
176
     1
 90
        2
176
     1
 90
        1
176
     1
 90
        2
176
     1
 40
0.6
176
     1
 40
30.0
176
     1
 62
     7
420
 16777215
176
     1
 90
        1
176
     1
 90
       10
176
     1
 62
     7
176
     1
 62
   257
176
     1
 90
        2
176
     1
 90
        1
176
     1
 40
1.0
176
     1
 90
        8
176
     1
 62
   257
176
     1
 40
1.0
176
     1
 90
        1
176
     1
 90
        6
176
     1
 90
        2
176
     1
 62
     7
176
     1
 90
        3
176
     1
 90
        0
176
     1
 90
        0
176
     1
290
     0
176
     1
 90
        5
176
     1
 40
0.0
176
     1
 90
        0
176
     1
290
     0
176
     1
290
     1
176
     1
290
     1
176
     1
290
     0
176
     1
290
     0
176
     1
290
     0
176
     1
290
     0
176
     1
290
     0
176
     1
290
     0
176
     1
 90
       50
176
     1
 40
0.0
176
     1
 40
1.0
176
     1
 90
        0
176
     1
 62
    18
420
        0
176
     1
 90
       50
176
     1
 90
        3
176
     1
 62
     5
420
      255
176
     1
290
     0
176
     1
 90
       50
176
     1
 90
       50
176
     1
 90
       50
176
     1
290
     0
176
     1
 90
       50
176
     1
 62
   256
176
     0
 40
1.0
176
     0
 90
        2
176
     1
  1
strokes_ogs.tif
176
     1
290
     0
176
     1
 40
1.0
176
     1
 40
1.0
176
     1
  0
VISUALSTYLE
  5
B73
102
{ACAD_REACTORS
330
B5F
102
}
330
B5F
100
AcDbVisualStyle
  2
Shades of Gray
 70
    23
177
     3
291
     0
 70
    58
 90
        2
176
     1
 90
        2
176
     1
 90
        3
176
     1
 90
        0
176
     1
 40
0.6
176
     1
 40
30.0
176
     1
 62
     7
420
 16777215
176
     1
 90
        2
176
     1
 90
        2
176
     1
 62
     7
176
     1
 62
     7
176
     1
 90
        1
176
     1
 90
        1
176
     1
 40
40.0
176
     1
 90
        8
176
     1
 62
     7
176
     1
 40
1.0
176
     1
 90
        1
176
     1
 90
        6
176
     1
 90
        2
176
     1
 62
     7
176
     1
 90
        3
176
     1
 90
        0
176
     1
 90
        0
176
     1
290
     0
176
     1
 90
        1
176
     1
 40
0.0
176
     1
 90
        0
176
     1
290
     0
176
     1
290
     1
176
     1
290
     1
176
     1
290
     0
176
     1
290
     0
176
     1
290
     0
176
     1
290
     0
176
     1
290
     0
176
     1
290
     0
176
     1
 90
       50
176
     1
 40
0.0
176
     1
 40
1.0
176
     1
 90
        0
176
     1
 62
    18
420
        0
176
     1
 90
       50
176
     1
 90
        3
176
     1
 62
     5
420
      255
176
     1
290
     0
176
     1
 90
       50
176
     1
 90
       50
176
     1
 90
       50
176
     1
290
     0
176
     1
 90
       50
176
     1
 62
   256
176
     0
 40
1.0
176
     0
 90
        2
176
     1
  1
strokes_ogs.tif
176
     1
290
     0
176
     1
 40
1.0
176
     1
 40
1.0
176
     1
  0
VISUALSTYLE
  5
B74
102
{ACAD_REACTORS
330
B5F
102
}
330
B5F
100
AcDbVisualStyle
  2
Sketchy
 70
    24
177
     3
291
     0
 70
    58
 90
        1
176
     1
 90
        2
176
     1
 90
        2
176
     1
 90
        0
176
     1
 40
0.6
176
     1
 40
30.0
176
     1
 62
     7
420
 16777215
176
     1
 90
        2
176
     1
 90
        2
176
     1
 62
     7
176
     1
 62
     7
176
     1
 90
        1
176
     1
 90
        1
176
     1
 40
40.0
176
     1
 90
       11
176
     1
 62
     7
176
     1
 40
1.0
176
     1
 90
        1
176
     1
 90
        6
176
     1
 90
        2
176
     1
 62
     7
176
     1
 90
        6
176
     1
 90
        0
176
     1
 90
        0
176
     1
290
     0
176
     1
 90
        1
176
     1
 40
0.0
176
     1
 90
        0
176
     1
290
     0
176
     1
290
     1
176
     1
290
     1
176
     1
290
     0
176
     1
290
     0
176
     1
290
     0
176
     1
290
     0
176
     1
290
     0
176
     1
290
     0
176
     1
 90
       50
176
     1
 40
0.0
176
     1
 40
1.0
176
     1
 90
        0
176
     1
 62
    18
420
        0
176
     1
 90
       50
176
     1
 90
        3
176
     1
 62
     5
420
      255
176
     1
290
     0
176
     1
 90
       50
176
     1
 90
       50
176
     1
 90
       50
176
     1
290
     0
176
     1
 90
       50
176
     1
 62
   256
176
     0
 40
1.0
176
     0
 90
        2
176
     1
  1
strokes_ogs.tif
176
     1
290
     0
176
     1
 40
1.0
176
     1
 40
1.0
176
     1
  0
VISUALSTYLE
  5
B6C
102
{ACAD_REACTORS
330
B5F
102
}
330
B5F
100
AcDbVisualStyle
  2
Thicken
 70
    13
177
     3
291
     1
 70
    58
 90
        2
176
     1
 90
        2
176
     1
 90
        0
176
     1
 90
        0
176
     1
 40
0.6
176
     1
 40
30.0
176
     1
 62
     7
420
 16777215
176
     1
 90
        1
176
     1
 90
        4
176
     1
 62
     7
176
     1
 62
   257
176
     1
 90
        1
176
     1
 90
        1
176
     1
 40
1.0
176
     1
 90
       12
176
     1
 62
     7
176
     1
 40
1.0
176
     1
 90
        1
176
     1
 90
        6
176
     1
 90
        2
176
     1
 62
     7
176
     1
 90
        5
176
     1
 90
        0
176
     1
 90
        0
176
     1
290
     0
176
     1
 90
        1
176
     1
 40
0.0
176
     1
 90
        0
176
     1
290
     0
176
     1
290
     1
176
     1
290
     1
176
     1
290
     0
176
     1
290
     0
176
     1
290
     0
176
     1
290
     0
176
     1
290
     0
176
     1
290
     0
176
     1
 90
       50
176
     1
 40
0.0
176
     1
 40
1.0
176
     1
 90
        0
176
     1
 62
    18
420
        0
176
     1
 90
       50
176
     1
 90
        3
176
     1
 62
     5
420
      255
176
     1
290
     0
176
     1
 90
       50
176
     1
 90
       50
176
     1
 90
       50
176
     1
290
     0
176
     1
 90
       50
176
     1
 62
   256
176
     0
 40
1.0
176
     0
 90
        2
176
     1
  1
strokes_ogs.tif
176
     1
290
     0
176
     1
 40
1.0
176
     1
 40
1.0
176
     1
  0
VISUALSTYLE
  5
B65
102
{ACAD_REACTORS
330
B5F
102
}
330
B5F
100
AcDbVisualStyle
  2
Wireframe
 70
     5
177
     3
291
     0
 70
    58
 90
        0
176
     1
 90
        2
176
     1
 90
        0
176
     1
 90
        0
176
     1
 40
0.6
176
     1
 40
30.0
176
     1
 62
     7
420
 16777215
176
     1
 90
        1
176
     1
 90
        4
176
     1
 62
     7
176
     1
 62
   257
176
     1
 90
        1
176
     1
 90
        1
176
     1
 40
1.0
176
     1
 90
        0
176
     1
 62
   257
176
     1
 40
1.0
176
     1
 90
        1
176
     1
 90
        6
176
     1
 90
        2
176
     1
 62
     7
176
     1
 90
        3
176
     1
 90
        0
176
     1
 90
        0
176
     1
290
     0
176
     1
 90
        1
176
     1
 40
0.0
176
     1
 90
        0
176
     1
290
     0
176
     1
290
     1
176
     1
290
     1
176
     1
290
     0
176
     1
290
     0
176
     1
290
     0
176
     1
290
     0
176
     1
290
     0
176
     1
290
     0
176
     1
 90
       50
176
     1
 40
0.0
176
     1
 40
1.0
176
     1
 90
        0
176
     1
 62
    18
420
        0
176
     1
 90
       50
176
     1
 90
        3
176
     1
 62
     5
420
      255
176
     1
290
     0
176
     1
 90
       50
176
     1
 90
       50
176
     1
 90
       50
176
     1
290
     0
176
     1
 90
       50
176
     1
 62
   256
176
     0
 40
1.0
176
     0
 90
        2
176
     1
  1
strokes_ogs.tif
176
     1
290
     0
176
     1
 40
1.0
176
     1
 40
1.0
176
     1
  0
VISUALSTYLE
  5
B75
102
{ACAD_REACTORS
330
B5F
102
}
330
B5F
100
AcDbVisualStyle
  2
X-Ray
 70
    25
177
     3
291
     0
 70
    58
 90
        2
176
     1
 90
        2
176
     1
 90
        1
176
     1
 90
        1
176
     1
 40
0.5
176
     1
 40
30.0
176
     1
 62
     7
420
 16777215
176
     1
 90
        1
176
     1
 90
        0
176
     1
 62
     7
176
     1
 62
   257
176
     1
 90
        1
176
     1
 90
        1
176
     1
 40
1.0
176
     1
 90
        8
176
     1
 62
     7
176
     1
 40
1.0
176
     1
 90
        1
176
     1
 90
        6
176
     1
 90
        2
176
     1
 62
     7
176
     1
 90
        3
176
     1
 90
        0
176
     1
 90
        0
176
     1
290
     0
176
     1
 90
       13
176
     1
 40
0.0
176
     1
 90
        0
176
     1
290
     0
176
     1
290
     1
176
     1
290
     1
176
     1
290
     0
176
     1
290
     0
176
     1
290
     0
176
     1
290
     0
176
     1
290
     0
176
     1
290
     0
176
     1
 90
       50
176
     1
 40
0.0
176
     1
 40
1.0
176
     1
 90
        0
176
     1
 62
    18
420
        0
176
     1
 90
       50
176
     1
 90
        3
176
     1
 62
     5
420
      255
176
     1
290
     0
176
     1
 90
       50
176
     1
 90
       50
176
     1
 90
       50
176
     1
290
     0
176
     1
 90
       50
176
     1
 62
   256
176
     0
 40
1.0
176
     0
 90
        2
176
     1
  1
strokes_ogs.tif
176
     1
290
     0
176
     1
 40
1.0
176
     1
 40
1.0
176
     1
  0
DICTIONARYVAR
  5
C41
102
{ACAD_REACTORS
330
C40
102
}
330
C40
100
DictionaryVariables
280
     0
  1
1:1
  0
DICTIONARYVAR
  5
C43
102
{ACAD_REACTORS
330
C40
102
}
330
C40
100
DictionaryVariables
280
     0
  1
Standard
  0
DICTIONARYVAR
  5
C42
102
{ACAD_REACTORS
330
C40
102
}
330
C40
100
DictionaryVariables
280
     0
  1
Standard
  0
DICTIONARYVAR
  5
C44
102
{ACAD_REACTORS
330
C40
102
}
330
C40
100
DictionaryVariables
280
     0
  1
0
  0
DICTIONARY
  5
3056
330
B7D
100
AcDbDictionary
280
     1
281
     1
  3
ACAD_ROUNDTRIP_2008_TABLESTYLE_CELLSTYLEMAP
360
3057
  0
CELLSTYLEMAP
  5
3057
102
{ACAD_REACTORS
330
3056
102
}
330
3056
100
AcDbCellStyleMap
 90
        3
300
CELLSTYLE
  1
TABLEFORMAT_BEGIN
 90
        5
170
     1
 91
        0
 92
    32768
 62
   257
 93
        1
300
CONTENTFORMAT
  1
CONTENTFORMAT_BEGIN
 90
        0
 91
        0
 92
        4
 93
        0
300

 40
0.0
140
1.0
 94
        5
 62
     0
340
11
144
0.25
309
CONTENTFORMAT_END
171
     1
301
MARGIN
  1
CELLMARGIN_BEGIN
 40
0.06
 40
0.06
 40
0.06
 40
0.06
 40
0.06
 40
0.06
309
CELLMARGIN_END
 94
        6
 95
        1
302
GRIDFORMAT
  1
GRIDFORMAT_BEGIN
 90
        0
 91
        1
 62
     0
 92
       -2
340
14
 93
        0
 40
0.045
309
GRIDFORMAT_END
 95
        2
302
GRIDFORMAT
  1
GRIDFORMAT_BEGIN
 90
        0
 91
        1
 62
     0
 92
       -2
340
14
 93
        0
 40
0.045
309
GRIDFORMAT_END
 95
        4
302
GRIDFORMAT
  1
GRIDFORMAT_BEGIN
 90
        0
 91
        1
 62
     0
 92
       -2
340
14
 93
        0
 40
0.045
309
GRIDFORMAT_END
 95
        8
302
GRIDFORMAT
  1
GRIDFORMAT_BEGIN
 90
        0
 91
        1
 62
     0
 92
       -2
340
14
 93
        0
 40
0.045
309
GRIDFORMAT_END
 95
       16
302
GRIDFORMAT
  1
GRIDFORMAT_BEGIN
 90
        0
 91
        1
 62
     0
 92
       -2
340
14
 93
        0
 40
0.045
309
GRIDFORMAT_END
 95
       32
302
GRIDFORMAT
  1
GRIDFORMAT_BEGIN
 90
        0
 91
        1
 62
     0
 92
       -2
340
14
 93
        0
 40
0.045
309
GRIDFORMAT_END
309
TABLEFORMAT_END
  1
CELLSTYLE_BEGIN
 90
        1
 91
        1
300
_TITLE
309
CELLSTYLE_END
300
CELLSTYLE
  1
TABLEFORMAT_BEGIN
 90
        5
170
     1
 91
        0
 92
        0
 62
   257
 93
        1
300
CONTENTFORMAT
  1
CONTENTFORMAT_BEGIN
 90
        0
 91
        0
 92
        4
 93
        0
300

 40
0.0
140
1.0
 94
        5
 62
     0
340
11
144
0.18
309
CONTENTFORMAT_END
171
     1
301
MARGIN
  1
CELLMARGIN_BEGIN
 40
0.06
 40
0.06
 40
0.06
 40
0.06
 40
0.06
 40
0.06
309
CELLMARGIN_END
 94
        6
 95
        1
302
GRIDFORMAT
  1
GRIDFORMAT_BEGIN
 90
        0
 91
        1
 62
     0
 92
       -2
340
14
 93
        0
 40
0.045
309
GRIDFORMAT_END
 95
        2
302
GRIDFORMAT
  1
GRIDFORMAT_BEGIN
 90
        0
 91
        1
 62
     0
 92
       -2
340
14
 93
        0
 40
0.045
309
GRIDFORMAT_END
 95
        4
302
GRIDFORMAT
  1
GRIDFORMAT_BEGIN
 90
        0
 91
        1
 62
     0
 92
       -2
340
14
 93
        0
 40
0.045
309
GRIDFORMAT_END
 95
        8
302
GRIDFORMAT
  1
GRIDFORMAT_BEGIN
 90
        0
 91
        1
 62
     0
 92
       -2
340
14
 93
        0
 40
0.045
309
GRIDFORMAT_END
 95
       16
302
GRIDFORMAT
  1
GRIDFORMAT_BEGIN
 90
        0
 91
        1
 62
     0
 92
       -2
340
14
 93
        0
 40
0.045
309
GRIDFORMAT_END
 95
       32
302
GRIDFORMAT
  1
GRIDFORMAT_BEGIN
 90
        0
 91
        1
 62
     0
 92
       -2
340
14
 93
        0
 40
0.045
309
GRIDFORMAT_END
309
TABLEFORMAT_END
  1
CELLSTYLE_BEGIN
 90
        2
 91
        1
300
_HEADER
309
CELLSTYLE_END
300
CELLSTYLE
  1
TABLEFORMAT_BEGIN
 90
        5
170
     1
 91
        0
 92
        0
 62
   257
 93
        1
300
CONTENTFORMAT
  1
CONTENTFORMAT_BEGIN
 90
        0
 91
        0
 92
        4
 93
        0
300

 40
0.0
140
1.0
 94
        2
 62
     0
340
11
144
0.18
309
CONTENTFORMAT_END
171
     1
301
MARGIN
  1
CELLMARGIN_BEGIN
 40
0.06
 40
0.06
 40
0.06
 40
0.06
 40
0.06
 40
0.06
309
CELLMARGIN_END
 94
        6
 95
        1
302
GRIDFORMAT
  1
GRIDFORMAT_BEGIN
 90
        0
 91
        1
 62
     0
 92
       -2
340
14
 93
        0
 40
0.045
309
GRIDFORMAT_END
 95
        2
302
GRIDFORMAT
  1
GRIDFORMAT_BEGIN
 90
        0
 91
        1
 62
     0
 92
       -2
340
14
 93
        0
 40
0.045
309
GRIDFORMAT_END
 95
        4
302
GRIDFORMAT
  1
GRIDFORMAT_BEGIN
 90
        0
 91
        1
 62
     0
 92
       -2
340
14
 93
        0
 40
0.045
309
GRIDFORMAT_END
 95
        8
302
GRIDFORMAT
  1
GRIDFORMAT_BEGIN
 90
        0
 91
        1
 62
     0
 92
       -2
340
14
 93
        0
 40
0.045
309
GRIDFORMAT_END
 95
       16
302
GRIDFORMAT
  1
GRIDFORMAT_BEGIN
 90
        0
 91
        1
 62
     0
 92
       -2
340
14
 93
        0
 40
0.045
309
GRIDFORMAT_END
 95
       32
302
GRIDFORMAT
  1
GRIDFORMAT_BEGIN
 90
        0
 91
        1
 62
     0
 92
       -2
340
14
 93
        0
 40
0.045
309
GRIDFORMAT_END
309
TABLEFORMAT_END
  1
CELLSTYLE_BEGIN
 90
        3
 91
        2
300
_DATA
309
CELLSTYLE_END
  0
ENDSEC
  0
EOF
